<?xml version="1.0" encoding="UTF-8"?>
<svg width="72px" height="44px" viewBox="0 0 72 44" version="1.1" xmlns="http://www.w3.org/2000/svg" xmlns:xlink="http://www.w3.org/1999/xlink">
    <title>编组</title>
    <g id="Components" stroke="none" stroke-width="1" fill="none" fill-rule="evenodd">
        <g id="反馈-Feedback" transform="translate(-160.000000, -2575.000000)">
            <g id="空状态-Empty" transform="translate(120.000000, 2466.000000)">
                <g id="空状态/暂无数据" transform="translate(40.000000, 109.000000)">
                    <g id="编组">
                        <g>
                            <ellipse id="path--inject-119" fill="#F5F5F5" fill-rule="nonzero" cx="36" cy="38" rx="36" ry="6"></ellipse>
                            <g id="暂无数据" transform="translate(12.000000, 0.000000)">
                                <path d="M34.4715,0 L13.5285,0 C12.567,0 11.6655,0.459 11.1015,1.236 L0,15 L0,36 C0,37.656 1.3425,39 3,39 L45,39 C46.656,39 48,37.656 48,36 L48,15 L36.8985,1.236 C36.3345,0.459 35.433,0 34.4715,0 Z M35.3001893,2.37166289 L45.5,15 L45.5,15 L35.8065,15 C35.2095,15 34.638,15.237 34.215,15.6585 L29.2942784,20.6985833 C29.1061002,20.8913261 28.8481209,21 28.5787497,21 L19.4211657,21 C19.1518444,21 18.8939084,20.8913662 18.7057374,20.6986861 L13.7835,15.6585 L13.7835,15.6585 C13.362,15.237 12.7905,15 12.1935,15 L2.5,15 L12.6998107,2.37166289 C12.8896601,2.13661133 13.1756062,2 13.4777519,2 L34.5222481,2 C34.8243938,2 35.1103399,2.13661133 35.3001893,2.37166289 Z M2,17 L11.5895147,17 C11.8525235,17 12.1049441,17.1036149 12.2921008,17.2884013 L17.4085,22.34 L17.4085,22.34 C17.8315,22.763 18.403,23 19,23 L29,23 C29.597,23 30.1685,22.763 30.59,22.34 L35.7079168,17.2883039 C35.895065,17.1035772 36.1474435,17 36.4104043,17 L46,17 L46,17 L46,36 C46,36.5522847 45.5522847,37 45,37 L3,37 C2.44771525,37 2,36.5522847 2,36 L2,17 L2,17 Z" id="Archive" fill="#DDDDDD"></path>
                                <path d="M2,17 L11.5895147,17 C11.8525235,17 12.1049441,17.1036149 12.2921008,17.2884013 L17.4085,22.34 L17.4085,22.34 C17.8315,22.763 18.403,23 19,23 L29,23 C29.597,23 30.1685,22.763 30.59,22.34 L35.7079168,17.2883039 C35.895065,17.1035772 36.1474435,17 36.4104043,17 L46,17 L46,17 L46,36 C46,36.5522847 45.5522847,37 45,37 L3,37 C2.44771525,37 2,36.5522847 2,36 L2,17 L2,17 Z" id="Archive-path" fill="#F8F8F8"></path>
                            </g>
                        </g>
                    </g>
                </g>
            </g>
        </g>
    </g>
</svg>