<?xml version="1.0" encoding="UTF-8"?>
<svg width="72px" height="45px" viewBox="0 0 72 45" version="1.1" xmlns="http://www.w3.org/2000/svg" xmlns:xlink="http://www.w3.org/1999/xlink">
    <title>编组</title>
    <g id="Components" stroke="none" stroke-width="1" fill="none" fill-rule="evenodd">
        <g id="反馈-Feedback" transform="translate(-292.000000, -2574.000000)">
            <g id="空状态-Empty" transform="translate(120.000000, 2466.000000)">
                <g id="空状态/暂无通知" transform="translate(172.000000, 108.000000)">
                    <g id="空状态/暂无数据">
                        <g id="编组">
                            <ellipse id="path--inject-119" fill="#F5F5F5" fill-rule="nonzero" cx="36" cy="39" rx="36" ry="6"></ellipse>
                            <g id="编组-2" transform="translate(13.000000, 0.000000)">
                                <path d="M39.367,2.277 L39.1137114,2.59766198 C34.4206619,8.40214834 26.7806924,11.9180566 19.1289395,12.048666 L18.6875,12.0524375 L10.0625,12.0524375 C5.6096945,12.0524375 2,15.662132 2,20.1149375 C2,24.4852836 5.47724,28.043456 9.81600688,28.1737414 L10.0625,28.1774375 L12.0625,28.1774375 L12.0625,30.1774375 C12.0625,32.8835466 12.9958418,35.4527955 14.6886385,37.4950974 L14.892,37.734 L16.013,36.345 L15.9478199,36.2667168 C14.6387913,34.6360726 13.8897908,32.6260317 13.8181634,30.512048 L13.8125,30.1774375 L13.8125,28.1774375 L18.6875,28.1774375 C26.4857576,28.1774375 34.330411,31.7161019 39.1133117,37.6316777 L39.367,37.953 L39.494131,37.3120518 C40.2522741,33.3429175 40.7436698,29.3059118 40.9697445,25.2225044 L41.0248241,24.1077135 L41.0849202,22.7250976 L42.4000004,22.2940496 C43.3521746,21.9819524 44,21.1120218 44,20.1149375 C44,19.1765052 43.4261478,18.3507073 42.5648019,17.9966044 L42.4000004,17.9358254 L41.0849202,17.5047774 L41.0248241,16.1221615 C40.8308099,11.6585252 40.3211962,7.24778791 39.4944619,2.91944182 L39.367,2.277 Z" id="路径" fill="#FFFFFF" fill-rule="nonzero"></path>
                                <path d="M39.4780625,0 C39.608875,0 39.741125,0.0129375 39.8719375,0.043125 C40.5619375,0.1969375 41.098125,0.7431875 41.2404375,1.4375 C42.2236875,6.2603125 42.8101875,11.140625 43.0229375,16.0353125 C44.7465,16.60025 46,18.201625 46,20.1149375 C46,22.02825 44.7465,23.629625 43.0229375,24.1945625 C42.8101875,29.08925 42.2236875,33.9695625 41.2404375,38.792375 C41.098125,39.4866875 40.563375,40.0329375 39.8719375,40.18675 C39.741125,40.2169375 39.608875,40.2313125 39.4780625,40.2313125 C38.918875,40.2313125 38.3826875,39.96825 38.039125,39.50825 C33.6389651,33.6122332 26.1691155,30.3060943 19.1026811,30.1811156 L18.6875,30.1774375 L15.8125,30.1774375 C15.8125,32.231625 16.6131875,34.1650625 18.0334375,35.6054375 C18.3641823,35.9401354 18.4146944,36.4511866 18.1727943,36.8407433 L18.0995625,36.94375 L15.7435,39.8661875 C15.5666875,40.086125 15.3065,40.2198125 15.0261875,40.2385 C14.745875,40.258625 14.4713125,40.158 14.2671875,39.965375 C11.5819375,37.423875 10.0625,33.9135 10.0625,30.1774375 C4.505125,30.1774375 0,25.6723125 0,20.1149375 C0,14.6501854 4.35620559,10.2029006 9.78552411,10.0561758 L10.0625,10.0524375 L18.6875,10.0524375 C25.875,10.0524375 33.5526875,6.73325 38.039125,0.721625 C38.3826875,0.2601875 38.918875,0 39.4780625,0 Z M39.367,2.277 L39.1137114,2.59766198 C34.4206619,8.40214834 26.7806924,11.9180566 19.1289395,12.048666 L18.6875,12.0524375 L10.0625,12.0524375 C5.6096945,12.0524375 2,15.662132 2,20.1149375 C2,24.4852836 5.47724,28.043456 9.81600688,28.1737414 L10.0625,28.1774375 L12.0625,28.1774375 L12.0625,30.1774375 C12.0625,32.8835466 12.9958418,35.4527955 14.6886385,37.4950974 L14.892,37.734 L16.013,36.345 L15.9478199,36.2667168 C14.6387913,34.6360726 13.8897908,32.6260317 13.8181634,30.512048 L13.8125,30.1774375 L13.8125,28.1774375 L18.6875,28.1774375 C26.4857576,28.1774375 34.330411,31.7161019 39.1133117,37.6316777 L39.367,37.953 L39.494131,37.3120518 C40.2522741,33.3429175 40.7436698,29.3059118 40.9697445,25.2225044 L41.0248241,24.1077135 L41.0849202,22.7250976 L42.4000004,22.2940496 C43.3521746,21.9819524 44,21.1120218 44,20.1149375 C44,19.1765052 43.4261478,18.3507073 42.5648019,17.9966044 L42.4000004,17.9358254 L41.0849202,17.5047774 L41.0248241,16.1221615 C40.8308099,11.6585252 40.3211962,7.24778791 39.4944619,2.91944182 L39.367,2.277 Z M17,12.0524375 L19,12.0524375 L19,28.1774375 L17,28.1774375 L17,12.0524375 Z" id="Bullhorn-path" fill="#DDDDDD"></path>
                                <path d="M17,12.0524375 L10.0625,12.0524375 C5.6096945,12.0524375 2,15.662132 2,20.1149375 C2,24.4852836 5.47724,28.043456 9.81600688,28.1737414 L10.0625,28.1774375 L12.0625,28.1774375 L12.0625,30.1774375 C12.0625,32.8835466 12.9958418,35.4527955 14.6886385,37.4950974 L14.892,37.734 L16.013,36.345 L15.9478199,36.2667168 C14.6387913,34.6360726 13.8897908,32.6260317 13.8181634,30.512048 L13.8125,30.1774375 L13.8125,28.1774375 L17,28.1774375 L17,12.0524375 Z" id="路径" fill="#F8F8F8"></path>
                            </g>
                        </g>
                    </g>
                </g>
            </g>
        </g>
    </g>
</svg>