<?xml version="1.0" encoding="UTF-8"?>
<svg width="44px" height="48px" viewBox="0 0 44 48" version="1.1" xmlns="http://www.w3.org/2000/svg" xmlns:xlink="http://www.w3.org/1999/xlink">
    <title>企业备份 13</title>
    <g id="页面-1" stroke="none" stroke-width="1" fill="none" fill-rule="evenodd">
        <g id="002智能监测预警一张图" transform="translate(-1018.000000, -507.000000)">
            <g id="地图气泡" transform="translate(574.000000, 205.000000)">
                <g id="企业备份-13" transform="translate(444.000000, 302.000000)">
                    <polygon id="路径" fill="#FD201C" fill-rule="nonzero" points="26 40 22 48 18 40"></polygon>
                    <path d="M0,22 L0,22 C0,34.1502629 9.84973711,44 22,44 C34.1502629,44 44,34.1502629 44,22 L44,22 C44,9.84973711 34.1502629,0 22,0 C9.84973711,0 0,9.84973711 0,22 L0,22 Z" id="路径" fill="#FD201C" fill-rule="nonzero" opacity="0.4"></path>
                    <path d="M3,22 L3,22 C3,32.4934089 11.5065911,41 22,41 C32.4934089,41 41,32.4934089 41,22 L41,22 C41,11.5065911 32.4934089,3 22,3 C11.5065911,3 3,11.5065911 3,22 L3,22 Z" id="路径备份-3" fill="#FD201C" fill-rule="nonzero"></path>
                    <path d="M6,22 L6,22 C6,30.8365399 13.1634601,38 22,38 C30.8365399,38 38,30.8365399 38,22 L38,22 C38,13.1634601 30.8365399,6 22,6 C13.1634601,6 6,13.1634601 6,22 L6,22 Z" id="路径" fill="#F7F8F8" fill-rule="nonzero"></path>
                    <g id="编组备份" transform="translate(12.000000, 12.000000)">
                        <path d="M12.5496511,0 C13.322598,0 13.4836286,0.653153153 13.4836286,1.46396396 L13.4836286,1.46396396 L13.4836286,4.39189189 L17.208803,4.39189189 C17.7241009,4.39189189 18.1427805,4.83108108 18.1427805,5.37162162 L18.1427805,5.37162162 L18.1430344,11.1312526 C17.7759312,11.0454028 17.3932678,11 17,11 C14.2385763,11 12,13.2385763 12,16 C12,17.6361819 12.785903,19.0888064 14.000811,20.0009752 L0.461621041,20 C0.203972088,20 0,19.786036 0,19.5157658 L0,19.5157658 L0,17.5675676 C0,17.2972973 0.203972088,17.0833333 0.461621041,17.0833333 L0.461621041,17.0833333 L1.85721954,17.0833333 L1.85721954,1.46396396 C1.85721954,0.653153153 2.47987118,0 3.25281804,0 L3.25281804,0 Z M6.03327966,13.1756757 L5.0993022,13.1756757 C4.58400429,13.1756757 4.16532475,13.6148649 4.16532475,14.1554054 L4.16532475,14.1554054 L4.16532475,15.1351351 C4.16532475,15.6756757 4.58400429,16.1148649 5.0993022,16.1148649 L5.0993022,16.1148649 L6.03327966,16.1148649 C6.54857756,16.1148649 6.96725711,15.6756757 6.96725711,15.1351351 L6.96725711,15.1351351 L6.96725711,14.1554054 C6.96725711,13.6148649 6.54857756,13.1756757 6.03327966,13.1756757 L6.03327966,13.1756757 Z M10.2200751,13.1756757 L9.28609769,13.1756757 C8.77079979,13.1756757 8.35212024,13.6148649 8.35212024,14.1554054 L8.35212024,14.1554054 L8.35212024,15.1351351 C8.35212024,15.6756757 8.77079979,16.1148649 9.28609769,16.1148649 L9.28609769,16.1148649 L10.2200751,16.1148649 C10.7353731,16.1148649 11.1540526,15.6756757 11.1540526,15.1351351 L11.1540526,15.1351351 L11.1540526,14.1554054 C11.1540526,13.6148649 10.7353731,13.1756757 10.2200751,13.1756757 L10.2200751,13.1756757 Z M6.03327966,8.29954955 L5.0993022,8.29954955 C4.58400429,8.29954955 4.16532475,8.73873874 4.16532475,9.27927928 L4.16532475,9.27927928 L4.16532475,10.259009 C4.16532475,10.7995495 4.58400429,11.2387387 5.0993022,11.2387387 L5.0993022,11.2387387 L6.03327966,11.2387387 C6.54857756,11.2387387 6.96725711,10.7995495 6.96725711,10.259009 L6.96725711,10.259009 L6.96725711,9.27927928 C6.96725711,8.73873874 6.54857756,8.29954955 6.03327966,8.29954955 L6.03327966,8.29954955 Z M10.2200751,8.29954955 L9.28609769,8.29954955 C8.77079979,8.29954955 8.35212024,8.73873874 8.35212024,9.27927928 L8.35212024,9.27927928 L8.35212024,10.259009 C8.35212024,10.7995495 8.77079979,11.2387387 9.28609769,11.2387387 L9.28609769,11.2387387 L10.2200751,11.2387387 C10.7353731,11.2387387 11.1540526,10.7995495 11.1540526,10.259009 L11.1540526,10.259009 L11.1540526,9.27927928 C11.1540526,8.73873874 10.7353731,8.29954955 10.2200751,8.29954955 L10.2200751,8.29954955 Z M15.8132045,8.29954955 L14.8792271,8.29954955 C14.6215781,8.29954955 14.417606,8.51351351 14.417606,8.78378378 L14.417606,8.78378378 L14.417606,9.76351351 C14.417606,10.0337838 14.6215781,10.2477477 14.8792271,10.2477477 L14.8792271,10.2477477 L15.8132045,10.2477477 C16.0708535,10.2477477 16.2748256,10.0337838 16.2748256,9.76351351 L16.2748256,9.76351351 L16.2748256,8.78378378 C16.2748256,8.51351351 16.0708535,8.29954955 15.8132045,8.29954955 L15.8132045,8.29954955 Z M6.03327966,3.41216216 L5.0993022,3.41216216 C4.58400429,3.41216216 4.16532475,3.85135135 4.16532475,4.39189189 L4.16532475,4.39189189 L4.16532475,5.37162162 C4.16532475,5.91216216 4.58400429,6.35135135 5.0993022,6.35135135 L5.0993022,6.35135135 L6.03327966,6.35135135 C6.54857756,6.35135135 6.96725711,5.91216216 6.96725711,5.37162162 L6.96725711,5.37162162 L6.96725711,4.39189189 C6.96725711,3.85135135 6.54857756,3.41216216 6.03327966,3.41216216 L6.03327966,3.41216216 Z M10.2200751,3.41216216 L9.28609769,3.41216216 C8.77079979,3.41216216 8.35212024,3.85135135 8.35212024,4.39189189 L8.35212024,4.39189189 L8.35212024,5.37162162 C8.35212024,5.91216216 8.77079979,6.35135135 9.28609769,6.35135135 L9.28609769,6.35135135 L10.2200751,6.35135135 C10.7353731,6.35135135 11.1540526,5.91216216 11.1540526,5.37162162 L11.1540526,5.37162162 L11.1540526,4.39189189 C11.1540526,3.85135135 10.7353731,3.41216216 10.2200751,3.41216216 L10.2200751,3.41216216 Z" id="形状结合" fill="#FD201C" fill-rule="nonzero"></path>
                        <circle id="椭圆形备份" fill="#FD201C" fill-rule="nonzero" cx="17" cy="16" r="4"></circle>
                        <text id="企" font-family="SourceHanSansCN-Bold, Source Han Sans CN" font-size="6" font-weight="bold" fill="#FFFFFF">
                            <tspan x="14" y="18">企</tspan>
                        </text>
                    </g>
                </g>
            </g>
        </g>
    </g>
</svg>