<?xml version="1.0" encoding="UTF-8"?>
<svg width="27px" height="40px" viewBox="0 0 27 40" version="1.1" xmlns="http://www.w3.org/2000/svg" xmlns:xlink="http://www.w3.org/1999/xlink">
    <title>切片</title>
    <defs>
        <linearGradient x1="50%" y1="0%" x2="50%" y2="100%" id="linearGradient-1">
            <stop stop-color="#1CC974" offset="0%"></stop>
            <stop stop-color="#0C9940" offset="100%"></stop>
        </linearGradient>
        <linearGradient x1="50%" y1="0%" x2="50%" y2="100%" id="linearGradient-2">
            <stop stop-color="#1CC974" offset="0%"></stop>
            <stop stop-color="#0C9940" offset="100%"></stop>
        </linearGradient>
    </defs>
    <g id="DV" stroke="none" stroke-width="1" fill="none" fill-rule="evenodd">
        <g id="000-组件" transform="translate(-3388.000000, -158.000000)">
            <g id="02组件/19地图标点/03轨迹/01pin-start" transform="translate(3388.000000, 158.000000)">
                <ellipse id="椭圆形" fill-opacity="0.4" fill="#000000" cx="13.5" cy="38.5" rx="6.5" ry="1.5"></ellipse>
                <g id="icon_dw" transform="translate(0.500000, 0.500000)">
                    <path d="M8.9375,29.3142857 C11.375,33.3857143 11.78125,38 13,38 C14.21875,38 14.625,33.3857143 17.0625,29.3142857 C19.5,25.2428571 26,18.9346099 26,13.0285714 C26,5.83309012 20.1797017,0 13,0 C5.82029825,0 0,5.83309012 0,13.0285714 C0,20.2240527 6.5,25.2428571 8.9375,29.3142857 Z" id="Combined-Shape" stroke="#FFFFFF" fill="url(#linearGradient-1)"></path>
                    <circle id="Oval" fill="#FFFFFF" cx="13" cy="13" r="9.5"></circle>
                </g>
                <text id="起" fill="url(#linearGradient-2)" fill-rule="nonzero" font-family="PingFangSC-Semibold, PingFang SC" font-size="13" font-weight="500">
                    <tspan x="7" y="18">起</tspan>
                </text>
            </g>
        </g>
    </g>
</svg>