<?xml version="1.0" encoding="UTF-8"?>
<svg width="44px" height="48px" viewBox="0 0 44 48" version="1.1" xmlns="http://www.w3.org/2000/svg" xmlns:xlink="http://www.w3.org/1999/xlink">
    <title>传感器备份 4</title>
    <g id="页面-1" stroke="none" stroke-width="1" fill="none" fill-rule="evenodd">
        <g id="002智能监测预警一张图" transform="translate(-716.000000, -368.000000)" fill-rule="nonzero">
            <g id="地图气泡" transform="translate(574.000000, 205.000000)">
                <g id="传感器备份-4" transform="translate(142.000000, 163.000000)">
                    <polygon id="路径" fill="#FA6400" points="26 40 22 48 18 40"></polygon>
                    <path d="M0,22 L0,22 C0,34.1502629 9.84973711,44 22,44 C34.1502629,44 44,34.1502629 44,22 L44,22 C44,9.84973711 34.1502629,0 22,0 C9.84973711,0 0,9.84973711 0,22 L0,22 Z" id="路径" fill="#FA6400" opacity="0.4"></path>
                    <path d="M3,22 L3,22 C3,32.4934089 11.5065911,41 22,41 C32.4934089,41 41,32.4934089 41,22 L41,22 C41,11.5065911 32.4934089,3 22,3 C11.5065911,3 3,11.5065911 3,22 L3,22 Z" id="路径备份-2" fill="#FA6400"></path>
                    <path d="M6,22 L6,22 C6,30.8365399 13.1634601,38 22,38 C30.8365399,38 38,30.8365399 38,22 L38,22 C38,13.1634601 30.8365399,6 22,6 C13.1634601,6 6,13.1634601 6,22 L6,22 Z" id="路径" fill="#F7F8F8"></path>
                    <path d="M33.0501473,17.1240365 L33.0501478,17.1240375 C32.4541095,15.7385097 31.5858657,14.4756223 30.4926208,13.4040413 L30.4926211,13.4040416 C29.3958117,12.3460036 28.0943447,11.5029576 26.6610283,10.9220519 L26.6610282,10.9220519 C25.1900778,10.3105799 23.6032498,9.99669736 21.9998813,10.0000262 L21.9998812,10.0000262 C20.3965534,9.99707033 18.8097947,10.3109373 17.3387342,10.9220499 L17.3387339,10.9220501 C15.9069439,11.5051335 14.6062432,12.3479197 13.5081805,13.4040398 L13.5081803,13.4040399 C12.4155081,14.4754548 11.548265,15.738432 10.9537919,17.1240361 L10.9537921,17.1240358 C10.3206151,18.5559641 9.99620159,20.0958297 10.0000336,21.6510234 C10.0000336,23.2640198 10.3235416,24.7910202 10.9652702,26.228011 L10.9652704,26.2280116 C11.5910331,27.6419399 12.5016086,28.9237316 13.6448746,30 L30.3569746,30 L30.3569748,30 C31.5005852,28.9239911 32.4112137,27.6421311 33.036579,26.2280114 C33.6803965,24.7840148 34.0080422,23.2250262 33.9998501,21.6510238 L33.9998501,21.6510112 C34.0039606,20.0961827 33.6810038,18.5565026 33.0501379,17.1240236 L33.0501473,17.1240365 Z M21.3863154,12.4950568 L22.6176013,12.4950568 L22.6176013,14.6290586 L21.3863154,14.6290586 L21.3863154,12.4950568 Z M14.7697123,21.1830363 L12.6014057,20.7960367 L12.8153159,19.6260398 L14.9857216,20.0130395 L14.7697245,21.1830363 L14.7697123,21.1830363 Z M16.8587197,16.6580409 L15.4396103,15.0180445 L16.3776827,14.2660472 L17.7947052,15.9040436 L16.8587197,16.6580409 L16.8587197,16.6580409 Z M23.8081717,23.8750258 L23.8081717,23.8750258 C23.7014485,24.3368398 23.407518,24.7390445 22.9911411,24.9930227 C22.5633208,25.2610224 22.0979377,25.3400224 21.5970749,25.2280225 L21.5970748,25.2280225 C21.1150453,25.1285382 20.6982322,24.8407299 20.4471792,24.4340252 L20.4471792,24.4340252 C20.0735028,23.8741625 20.0629927,23.1597667 20.4200493,22.590029 L18.3571285,17.6980418 L22.053071,21.7030377 C22.7146273,21.7210377 23.2238359,21.9990374 23.5807007,22.5330349 C23.8478275,22.9490345 23.9250439,23.3970321 23.8081759,23.8750316 L23.8081717,23.8750258 Z M27.1441189,16.6580409 L26.2050031,15.9040436 L27.6261994,14.2660472 L28.5621849,15.0180445 L27.1441189,16.6580409 Z M29.2320869,21.1830363 L29.0202637,20.0130395 L31.1885703,19.6230399 L31.4024805,20.7930367 L29.2320747,21.1830363 L29.2320869,21.1830363 Z" id="形状备份-9" fill="#FA6400"></path>
                </g>
            </g>
        </g>
    </g>
</svg>