<?xml version="1.0" encoding="UTF-8"?>
<svg width="44px" height="48px" viewBox="0 0 44 48" version="1.1" xmlns="http://www.w3.org/2000/svg" xmlns:xlink="http://www.w3.org/1999/xlink">
    <title>视频备份 7</title>
    <g id="页面-1" stroke="none" stroke-width="1" fill="none" fill-rule="evenodd">
        <g id="002智能监测预警一张图" transform="translate(-946.000000, -499.000000)" fill-rule="nonzero">
            <g id="地图气泡" transform="translate(574.000000, 205.000000)">
                <g id="视频备份-7" transform="translate(372.000000, 294.000000)">
                    <polygon id="路径" fill="#00A862" points="26 40 22 48 18 40"></polygon>
                    <path d="M3,22 L3,22 C3,32.4934089 11.5065911,41 22,41 C32.4934089,41 41,32.4934089 41,22 L41,22 C41,11.5065911 32.4934089,3 22,3 C11.5065911,3 3,11.5065911 3,22 L3,22 Z" id="路径" fill="#00A862"></path>
                    <path d="M0,22 L0,22 C0,34.1502629 9.84973711,44 22,44 C34.1502629,44 44,34.1502629 44,22 L44,22 C44,9.84973711 34.1502629,0 22,0 C9.84973711,0 0,9.84973711 0,22 L0,22 Z" id="路径备份" fill="#00A862" opacity="0.404459635"></path>
                    <path d="M6,22 L6,22 C6,30.8365399 13.1634601,38 22,38 C30.8365399,38 38,30.8365399 38,22 L38,22 C38,13.1634601 30.8365399,6 22,6 C13.1634601,6 6,13.1634601 6,22 L6,22 Z" id="路径" fill="#F7F8F8"></path>
                    <path d="M31.9412423,16.6395349 L28.6295467,18.4767442 C28.1494124,18.8023256 27.7185227,19 27.570789,19.3604651 L27.570789,17.3023256 C27.570789,16.0348837 26.4750979,15 25.1331841,15 L13.4376049,15 C12.0956911,15 11,16.0348837 11,17.3023256 L11,26.6976744 C11,27.9651163 12.0956911,29 13.4376049,29 L25.1331841,29 C26.4750979,29 27.570789,27.9651163 27.570789,26.6976744 L27.570789,24.0581395 C27.7185227,24.4767442 28.1617236,24.8139535 28.6295467,25.0930233 L31.9412423,26.9302326 C32.5321768,27.3255814 33,27.0930233 33,26.4186047 L33,17.255814 C33,16.6395349 32.5198657,16.3139535 31.9412423,16.6395349 L31.9412423,16.6395349 Z M17.1186346,19.6744186 C16.9955232,20.2093023 16.5523223,20.6627907 15.9490767,20.7790698 C14.9026301,20.9651163 14.0162283,20.0930233 14.2132065,19.1395349 C14.3363179,18.6046512 14.7795187,18.1511628 15.3827644,18.0348837 C16.429211,17.8604651 17.3156128,18.6860465 17.1186346,19.6744186 Z" id="形状" fill="#00A862"></path>
                </g>
            </g>
        </g>
    </g>
</svg>