<?xml version="1.0" encoding="UTF-8"?>
<svg width="88px" height="88px" viewBox="0 0 88 88" version="1.1" xmlns="http://www.w3.org/2000/svg" xmlns:xlink="http://www.w3.org/1999/xlink">
    <title>nav_选中</title>
    <defs>
        <circle id="path-1" cx="37.5" cy="37.5" r="33"></circle>
        <filter x="-11.4%" y="-11.4%" width="122.7%" height="122.7%" filterUnits="objectBoundingBox" id="filter-2">
            <feGaussianBlur stdDeviation="4.5" in="SourceAlpha" result="shadowBlurInner1"></feGaussianBlur>
            <feOffset dx="6" dy="6" in="shadowBlurInner1" result="shadowOffsetInner1"></feOffset>
            <feComposite in="shadowOffsetInner1" in2="SourceAlpha" operator="arithmetic" k2="-1" k3="1" result="shadowInnerInner1"></feComposite>
            <feColorMatrix values="0 0 0 0 0.0352941176   0 0 0 0 0.31372549   0 0 0 0 0.552941176  0 0 0 1 0" type="matrix" in="shadowInnerInner1"></feColorMatrix>
        </filter>
        <filter x="-8.0%" y="-8.0%" width="116.0%" height="116.0%" filterUnits="objectBoundingBox" id="filter-3">
            <feGaussianBlur stdDeviation="2" in="SourceGraphic"></feGaussianBlur>
        </filter>
    </defs>
    <g id="DV" stroke="none" stroke-width="1" fill="none" fill-rule="evenodd">
        <g id="021-海军蓝(NavyBlue)-首页" transform="translate(-664.000000, -982.000000)">
            <g id="底部菜单" transform="translate(530.000000, 840.000000)">
                <g id="nav_选中" transform="translate(140.500000, 148.500000)">
                    <g id="椭圆形" opacity="0.676618304">
                        <use fill="#0F2373" fill-rule="evenodd" xlink:href="#path-1"></use>
                        <use fill="black" fill-opacity="1" filter="url(#filter-2)" xlink:href="#path-1"></use>
                    </g>
                    <circle id="椭圆形" stroke="#5AE2DB" opacity="0.649999976" cx="37.5" cy="37.5" r="26.5"></circle>
                    <path d="M37.5,55.5 C37.7761424,55.5 38,55.7238576 38,56 C38,56.2761424 37.7761424,56.5 37.5,56.5 C37.2238576,56.5 37,56.2761424 37,56 C37,55.7238576 37.2238576,55.5 37.5,55.5 Z M42.1587428,54.8866649 C42.4254759,54.815194 42.6996443,54.9734852 42.7711152,55.2402183 C42.8425862,55.5069513 42.6842949,55.7811198 42.4175619,55.8525907 C42.1508288,55.9240616 41.8766603,55.7657704 41.8051894,55.4990373 C41.7337185,55.2323043 41.8920098,54.9581358 42.1587428,54.8866649 Z M32.752359,54.8711845 L32.8412572,54.8866649 C33.1079902,54.9581358 33.2662815,55.2323043 33.1948106,55.4990373 C33.1233397,55.7657704 32.8491712,55.9240616 32.5824381,55.8525907 C32.3157051,55.7811198 32.1574138,55.5069513 32.2288848,55.2402183 C32.3003557,54.9734852 32.5745241,54.815194 32.8412572,54.8866649 Z M46.5,53.0884573 C46.7391463,52.9503861 47.0449415,53.0323237 47.1830127,53.27147 C47.3210839,53.5106163 47.2391463,53.8164115 47,53.9544827 C46.7608537,54.0925539 46.4550585,54.0106163 46.3169873,53.77147 C46.1789161,53.5323237 46.2608537,53.2265285 46.5,53.0884573 Z M27.8169873,53.27147 C27.9550585,53.0323237 28.2608537,52.9503861 28.5,53.0884573 C28.7391463,53.2265285 28.8210839,53.5323237 28.6830127,53.77147 C28.5449415,54.0106163 28.2391463,54.0925539 28,53.9544827 C27.7608537,53.8164115 27.6789161,53.5106163 27.8169873,53.27147 Z M50.2279221,50.2279221 C50.4231842,50.0326599 50.7397667,50.0326599 50.9350288,50.2279221 C51.130291,50.4231842 51.130291,50.7397667 50.9350288,50.9350288 C50.7397667,51.130291 50.4231842,51.130291 50.2279221,50.9350288 C50.0326599,50.7397667 50.0326599,50.4231842 50.2279221,50.2279221 Z M24.0649712,50.2279221 C24.2602333,50.0326599 24.5768158,50.0326599 24.7720779,50.2279221 C24.9673401,50.4231842 24.9673401,50.7397667 24.7720779,50.9350288 C24.5768158,51.130291 24.2602333,51.130291 24.0649712,50.9350288 C23.869709,50.7397667 23.869709,50.4231842 24.0649712,50.2279221 Z M53.0884573,46.5 C53.2265285,46.2608537 53.5323237,46.1789161 53.77147,46.3169873 C54.0106163,46.4550585 54.0925539,46.7608537 53.9544827,47 C53.8164115,47.2391463 53.5106163,47.3210839 53.27147,47.1830127 C53.0323237,47.0449415 52.9503861,46.7391463 53.0884573,46.5 Z M21.22853,46.3169873 C21.4676763,46.1789161 21.7734715,46.2608537 21.9115427,46.5 C22.0496139,46.7391463 21.9676763,47.0449415 21.72853,47.1830127 C21.4893837,47.3210839 21.1835885,47.2391463 21.0455173,47 C20.9074461,46.7608537 20.9893837,46.4550585 21.22853,46.3169873 Z M55.4101392,41.7897091 L55.4990373,41.8051894 C55.7657704,41.8766603 55.9240616,42.1508288 55.8525907,42.4175619 C55.7811198,42.6842949 55.5069513,42.8425862 55.2402183,42.7711152 C54.9734852,42.6996443 54.815194,42.4254759 54.8866649,42.1587428 C54.9581358,41.8920098 55.2323043,41.7337185 55.4990373,41.8051894 Z M19.5009627,41.8051894 C19.7676957,41.7337185 20.0418642,41.8920098 20.1133351,42.1587428 C20.184806,42.4254759 20.0265148,42.6996443 19.7597817,42.7711152 C19.4930487,42.8425862 19.2188802,42.6842949 19.1474093,42.4175619 C19.0759384,42.1508288 19.2342296,41.8766603 19.5009627,41.8051894 Z M56,37 C56.2761424,37 56.5,37.2238576 56.5,37.5 C56.5,37.7761424 56.2761424,38 56,38 C55.7238576,38 55.5,37.7761424 55.5,37.5 C55.5,37.2238576 55.7238576,37 56,37 Z M19,37 C19.2761424,37 19.5,37.2238576 19.5,37.5 C19.5,37.7761424 19.2761424,38 19,38 C18.7238576,38 18.5,37.7761424 18.5,37.5 C18.5,37.2238576 18.7238576,37 19,37 Z M55.2402183,32.2288848 C55.5069513,32.1574138 55.7811198,32.3157051 55.8525907,32.5824381 C55.9240616,32.8491712 55.7657704,33.1233397 55.4990373,33.1948106 C55.2323043,33.2662815 54.9581358,33.1079902 54.8866649,32.8412572 C54.815194,32.5745241 54.9734852,32.3003557 55.2402183,32.2288848 Z M19.6708836,32.2134044 L19.7597817,32.2288848 C20.0265148,32.3003557 20.184806,32.5745241 20.1133351,32.8412572 C20.0418642,33.1079902 19.7676957,33.2662815 19.5009627,33.1948106 C19.2342296,33.1233397 19.0759384,32.8491712 19.1474093,32.5824381 C19.2188802,32.3157051 19.4930487,32.1574138 19.7597817,32.2288848 Z M53.27147,27.8169873 C53.5106163,27.6789161 53.8164115,27.7608537 53.9544827,28 C54.0925539,28.2391463 54.0106163,28.5449415 53.77147,28.6830127 C53.5323237,28.8210839 53.2265285,28.7391463 53.0884573,28.5 C52.9503861,28.2608537 53.0323237,27.9550585 53.27147,27.8169873 Z M21.0455173,28 C21.1835885,27.7608537 21.4893837,27.6789161 21.72853,27.8169873 C21.9676763,27.9550585 22.0496139,28.2608537 21.9115427,28.5 C21.7734715,28.7391463 21.4676763,28.8210839 21.22853,28.6830127 C20.9893837,28.5449415 20.9074461,28.2391463 21.0455173,28 Z M50.2279221,24.0649712 C50.4231842,23.869709 50.7397667,23.869709 50.9350288,24.0649712 C51.130291,24.2602333 51.130291,24.5768158 50.9350288,24.7720779 C50.7397667,24.9673401 50.4231842,24.9673401 50.2279221,24.7720779 C50.0326599,24.5768158 50.0326599,24.2602333 50.2279221,24.0649712 Z M24.0649712,24.0649712 C24.2602333,23.869709 24.5768158,23.869709 24.7720779,24.0649712 C24.9673401,24.2602333 24.9673401,24.5768158 24.7720779,24.7720779 C24.5768158,24.9673401 24.2602333,24.9673401 24.0649712,24.7720779 C23.869709,24.5768158 23.869709,24.2602333 24.0649712,24.0649712 Z M46.3169873,21.22853 C46.4550585,20.9893837 46.7608537,20.9074461 47,21.0455173 C47.2391463,21.1835885 47.3210839,21.4893837 47.1830127,21.72853 C47.0449415,21.9676763 46.7391463,22.0496139 46.5,21.9115427 C46.2608537,21.7734715 46.1789161,21.4676763 46.3169873,21.22853 Z M28,21.0455173 C28.2391463,20.9074461 28.5449415,20.9893837 28.6830127,21.22853 C28.8210839,21.4676763 28.7391463,21.7734715 28.5,21.9115427 C28.2608537,22.0496139 27.9550585,21.9676763 27.8169873,21.72853 C27.6789161,21.4893837 27.7608537,21.1835885 28,21.0455173 Z M42.3286637,19.131929 L42.4175619,19.1474093 C42.6842949,19.2188802 42.8425862,19.4930487 42.7711152,19.7597817 C42.6996443,20.0265148 42.4254759,20.184806 42.1587428,20.1133351 C41.8920098,20.0418642 41.7337185,19.7676957 41.8051894,19.5009627 C41.8766603,19.2342296 42.1508288,19.0759384 42.4175619,19.1474093 Z M32.5824381,19.1474093 C32.8491712,19.0759384 33.1233397,19.2342296 33.1948106,19.5009627 C33.2662815,19.7676957 33.1079902,20.0418642 32.8412572,20.1133351 C32.5745241,20.184806 32.3003557,20.0265148 32.2288848,19.7597817 C32.1574138,19.4930487 32.3157051,19.2188802 32.5824381,19.1474093 Z M37.5,18.5 C37.7761424,18.5 38,18.7238576 38,19 C38,19.2761424 37.7761424,19.5 37.5,19.5 C37.2238576,19.5 37,19.2761424 37,19 C37,18.7238576 37.2238576,18.5 37.5,18.5 Z" id="形状结合" fill="#4FFCFF" opacity="0.3"></path>
                    <path d="M37.5,65.5 C37.7761424,65.5 38,65.7238576 38,66 L38,69 C38,69.2761424 37.7761424,69.5 37.5,69.5 C37.2238576,69.5 37,69.2761424 37,69 L37,66 C37,65.7238576 37.2238576,65.5 37.5,65.5 Z M38.9654068,65.461627 C39.2411707,65.4471748 39.4764373,65.6590098 39.4908895,65.9347738 L39.6478974,68.9306624 C39.6623496,69.2064263 39.4505145,69.4416929 39.1747506,69.4561451 C38.8989867,69.4705973 38.66372,69.2587623 38.6492679,68.9829983 L38.49226,65.9871097 C38.4778078,65.7113458 38.6896428,65.4760791 38.9654068,65.461627 Z M36.0345932,65.461627 C36.3103572,65.4760791 36.5221922,65.7113458 36.50774,65.9871097 L36.3507321,68.9829983 C36.33628,69.2587623 36.1010133,69.4705973 35.8252494,69.4561451 C35.5494855,69.4416929 35.3376504,69.2064263 35.3521026,68.9306624 L35.5091105,65.9347738 C35.5235627,65.6590098 35.7588293,65.4471748 36.0345932,65.461627 Z M40.9763222,65.7916098 L41.2899075,68.7751755 C41.3187723,69.0498051 41.1195405,69.2958359 40.8449108,69.3247007 C40.5702812,69.3535654 40.3242504,69.1543336 40.2953856,68.8797039 L39.9818003,65.8961382 C39.9529355,65.6215086 40.1521673,65.3754778 40.426797,65.3466131 C40.7014266,65.3177483 40.9474574,65.5169801 40.9763222,65.7916098 Z M34.573203,65.3466131 C34.8478327,65.3754778 35.0470645,65.6215086 35.0181997,65.8961382 L34.7046144,68.8797039 C34.6757496,69.1543336 34.4297188,69.3535654 34.1550892,69.3247007 C33.8804595,69.2958359 33.6812277,69.0498051 33.7100925,68.7751755 L34.0236778,65.7916098 C34.0525426,65.5169801 34.2985734,65.3177483 34.573203,65.3466131 Z M42.4522264,65.5709005 L42.9215298,68.5339655 C42.964728,68.8067081 42.7786455,69.0628287 42.5059029,69.1060269 C42.2331603,69.1492251 41.9770397,68.9631426 41.9338415,68.6904 L41.4645381,65.7273349 C41.4213399,65.4545923 41.6074224,65.1984717 41.880165,65.1552735 C42.1529076,65.1120754 42.4090282,65.2981579 42.4522264,65.5709005 Z M33.119835,65.1552735 C33.3925776,65.1984717 33.5786601,65.4545923 33.5354619,65.7273349 L33.0661585,68.6904 C33.0229603,68.9631426 32.7668397,69.1492251 32.4940971,69.1060269 C32.2213545,69.0628287 32.035272,68.8067081 32.0784702,68.5339655 L32.5477736,65.5709005 C32.5909718,65.2981579 32.8470924,65.1120754 33.119835,65.1552735 Z M43.914557,65.2732508 L44.5382921,68.2076936 C44.5957053,68.4778016 44.4232821,68.74331 44.1531741,68.8007232 C43.8830661,68.8581365 43.6175577,68.6857133 43.5601445,68.4156053 L42.9364094,65.4811625 C42.8789962,65.2110545 43.0514193,64.945546 43.3215273,64.8881328 C43.5916353,64.8307196 43.8571438,65.0031428 43.914557,65.2732508 Z M31.6784727,64.8881328 C31.9485807,64.945546 32.1210038,65.2110545 32.0635906,65.4811625 L31.4398555,68.4156053 C31.3824423,68.6857133 31.1169339,68.8581365 30.8468259,68.8007232 C30.5767179,68.74331 30.4042947,68.4778016 30.4617079,68.2076936 L31.085443,65.2732508 C31.1428562,65.0031428 31.4083647,64.8307196 31.6784727,64.8881328 Z M45.3593057,64.8994765 L46.1357628,67.797254 C46.2072337,68.0639871 46.0489425,68.3381555 45.7822094,68.4096264 C45.5154764,68.4810973 45.2413079,68.3228061 45.169837,68.0560731 L44.3933799,65.1582956 C44.321909,64.8915625 44.4802002,64.617394 44.7469333,64.5459231 C45.0136663,64.4744522 45.2878348,64.6327435 45.3593057,64.8994765 Z M30.2530667,64.5459231 C30.5197998,64.617394 30.678091,64.8915625 30.6066201,65.1582956 L29.830163,68.0560731 C29.7586921,68.3228061 29.4845236,68.4810973 29.2177906,68.4096264 C28.9510575,68.3381555 28.7927663,68.0639871 28.8642372,67.797254 L29.6406943,64.8994765 C29.7121652,64.6327435 29.9863337,64.4744522 30.2530667,64.5459231 Z M46.7825126,64.4506022 L47.7095636,67.3037718 C47.7948963,67.5663988 47.6511708,67.8484758 47.3885438,67.9338085 C47.1259168,68.0191412 46.8438398,67.8754158 46.7585071,67.6127888 L45.8314561,64.7596192 C45.7461234,64.4969922 45.8898488,64.2149151 46.1524758,64.1295825 C46.4151028,64.0442498 46.6971799,64.1879752 46.7825126,64.4506022 Z M28.8475242,64.1295825 C29.1101512,64.2149151 29.2538766,64.4969922 29.1685439,64.7596192 L28.2414929,67.6127888 C28.1561602,67.8754158 27.8740832,68.0191412 27.6114562,67.9338085 C27.3488292,67.8484758 27.2051037,67.5663988 27.2904364,67.3037718 L28.2174874,64.4506022 C28.3028201,64.1879752 28.5848972,64.0442498 28.8475242,64.1295825 Z M48.1802768,63.9278582 L49.2553806,66.7285995 C49.3543412,66.9864006 49.2255755,67.2756131 48.9677744,67.3745736 C48.7099733,67.4735342 48.4207608,67.3447685 48.3218002,67.0869674 L47.2466963,64.2862261 C47.1477358,64.028425 47.2765015,63.7392125 47.5343026,63.6402519 C47.7921037,63.5412914 48.0813162,63.6700571 48.1802768,63.9278582 Z M27.4656974,63.6402519 C27.7234985,63.7392125 27.8522642,64.028425 27.7533037,64.2862261 L26.6781998,67.0869674 C26.5792392,67.3447685 26.2900267,67.4735342 26.0322256,67.3745736 C25.7744245,67.2756131 25.6456588,66.9864006 25.7446194,66.7285995 L26.8197232,63.9278582 C26.9186838,63.6700571 27.2078963,63.5412914 27.4656974,63.6402519 Z M49.5487671,63.3326772 L50.768977,66.0733136 C50.8812942,66.3255822 50.7678412,66.6211374 50.5155726,66.7334546 C50.263304,66.8457719 49.9677488,66.7323188 49.8554315,66.4800502 L48.6352216,63.7394139 C48.5229044,63.4871453 48.6363574,63.19159 48.888626,63.0792728 C49.1408946,62.9669556 49.4364498,63.0804086 49.5487671,63.3326772 Z M26.111374,63.0792728 C26.3636426,63.19159 26.4770956,63.4871453 26.3647784,63.7394139 L25.1445685,66.4800502 C25.0322512,66.7323188 24.736696,66.8457719 24.4844274,66.7334546 C24.2321588,66.6211374 24.1187058,66.3255822 24.231023,66.0733136 L25.4512329,63.3326772 C25.5635502,63.0804086 25.8591054,62.9669556 26.111374,63.0792728 Z M50.8842325,62.6666907 L52.246204,65.3397103 C52.37157,65.5857549 52.2737406,65.8868428 52.027696,66.0122088 C51.7816513,66.1375748 51.4805635,66.0397454 51.3551975,65.7937008 L49.993226,63.1206812 C49.86786,62.8746365 49.9656893,62.5735487 50.211734,62.4481827 C50.4577787,62.3228167 50.7588665,62.420646 50.8842325,62.6666907 Z M24.788266,62.4481827 C25.0343107,62.5735487 25.13214,62.8746365 25.006774,63.1206812 L23.6448025,65.7937008 C23.5194365,66.0397454 23.2183487,66.1375748 22.972304,66.0122088 C22.7262594,65.8868428 22.62843,65.5857549 22.753796,65.3397103 L24.1157675,62.6666907 C24.2411335,62.420646 24.5422213,62.3228167 24.788266,62.4481827 Z M52.1830127,61.931724 L53.6830127,64.5298002 C53.8210839,64.7689465 53.7391463,65.0747417 53.5,65.2128129 C53.2608537,65.3508841 52.9550585,65.2689465 52.8169873,65.0298002 L51.3169873,62.431724 C51.1789161,62.1925777 51.2608537,61.8867825 51.5,61.7487113 C51.7391463,61.6106401 52.0449415,61.6925777 52.1830127,61.931724 Z M23.5,61.7487113 C23.7391463,61.8867825 23.8210839,62.1925777 23.6830127,62.431724 L22.1830127,65.0298002 C22.0449415,65.2689465 21.7391463,65.3508841 21.5,65.2128129 C21.2608537,65.0747417 21.1789161,64.7689465 21.3169873,64.5298002 L22.8169873,61.931724 C22.9550585,61.6925777 23.2608537,61.6106401 23.5,61.7487113 Z M53.4415478,61.1297917 L55.0754649,63.6458034 C55.2258628,63.8773959 55.1600416,64.1870603 54.9284491,64.3374582 C54.6968566,64.4878561 54.3871922,64.4220349 54.2367943,64.1904424 L52.6028772,61.6744307 C52.4524793,61.4428382 52.5183005,61.1331738 52.749893,60.9827759 C52.9814855,60.832378 53.2911499,60.8981992 53.4415478,61.1297917 Z M22.250107,60.9827759 C22.4816995,61.1331738 22.5475207,61.4428382 22.3971228,61.6744307 L20.7632057,64.1904424 C20.6128078,64.4220349 20.3031434,64.4878561 20.0715509,64.3374582 C19.8399584,64.1870603 19.7741372,63.8773959 19.9245351,63.6458034 L21.5584522,61.1297917 C21.7088501,60.8981992 22.0185145,60.832378 22.250107,60.9827759 Z M54.6563882,60.2630917 L56.4197439,62.6901427 C56.5820564,62.9135466 56.5325319,63.2262314 56.3091281,63.3885438 C56.0857242,63.5508562 55.7730394,63.5013318 55.610727,63.2779279 L53.8473712,60.850877 C53.6850588,60.6274731 53.7345832,60.3147883 53.9579871,60.1524758 C54.1813909,59.9901634 54.4940758,60.0396878 54.6563882,60.2630917 Z M21.0420129,60.1524758 C21.2654168,60.3147883 21.3149412,60.6274731 21.1526288,60.850877 L19.389273,63.2779279 C19.2269606,63.5013318 18.9142758,63.5508562 18.6908719,63.3885438 C18.4674681,63.2262314 18.4179436,62.9135466 18.5802561,62.6901427 L20.3436118,60.2630917 C20.5059242,60.0396878 20.8186091,59.9901634 21.0420129,60.1524758 Z M55.8242041,59.3339997 L57.7121653,61.6654376 C57.8859473,61.8800405 57.8528554,62.1948887 57.6382525,62.3686708 C57.4236496,62.5424528 57.1088014,62.5093609 56.9350193,62.294758 L55.0470582,59.9633201 C54.8732761,59.7487172 54.906368,59.4338689 55.1209709,59.2600869 C55.3355739,59.0863049 55.6504221,59.1193968 55.8242041,59.3339997 Z M19.8790291,59.2600869 C20.093632,59.4338689 20.1267239,59.7487172 19.9529418,59.9633201 L18.0649807,62.294758 C17.8911986,62.5093609 17.5763504,62.5424528 17.3617475,62.3686708 C17.1471446,62.1948887 17.1140527,61.8800405 17.2878347,61.6654376 L19.1757959,59.3339997 C19.3495779,59.1193968 19.6644261,59.0863049 19.8790291,59.2600869 Z M56.9417947,58.3450622 L58.9491865,60.5744967 C59.1339618,60.7797105 59.1173932,61.0958591 58.9121794,61.2806344 C58.7069656,61.4654097 58.390817,61.4488411 58.2060417,61.2436273 L56.1986499,59.0141928 C56.0138746,58.8089791 56.0304432,58.4928304 56.235657,58.3080551 C56.4408708,58.1232798 56.7570194,58.1398484 56.9417947,58.3450622 Z M18.764343,58.3080551 C18.9695568,58.4928304 18.9861254,58.8089791 18.8013501,59.0141928 L16.7939583,61.2436273 C16.609183,61.4488411 16.2930344,61.4654097 16.0878206,61.2806344 C15.8826068,61.0958591 15.8660382,60.7797105 16.0508135,60.5744967 L18.0582053,58.3450622 C18.2429806,58.1398484 18.5591292,58.1232798 18.764343,58.3080551 Z M58.0060967,57.2989899 L60.127417,59.4203102 C60.3226791,59.6155724 60.3226791,59.9321549 60.127417,60.127417 C59.9321549,60.3226791 59.6155724,60.3226791 59.4203102,60.127417 L57.2989899,58.0060967 C57.1037277,57.8108345 57.1037277,57.494252 57.2989899,57.2989899 C57.494252,57.1037277 57.8108345,57.1037277 58.0060967,57.2989899 Z M17.7010101,57.2989899 C17.8962723,57.494252 17.8962723,57.8108345 17.7010101,58.0060967 L15.5796898,60.127417 C15.3844276,60.3226791 15.0678451,60.3226791 14.872583,60.127417 C14.6773209,59.9321549 14.6773209,59.6155724 14.872583,59.4203102 L16.9939033,57.2989899 C17.1891655,57.1037277 17.505748,57.1037277 17.7010101,57.2989899 Z M59.0141928,56.1986499 L61.2436273,58.2060417 C61.4488411,58.390817 61.4654097,58.7069656 61.2806344,58.9121794 C61.0958591,59.1173932 60.7797105,59.1339618 60.5744967,58.9491865 L58.3450622,56.9417947 C58.1398484,56.7570194 58.1232798,56.4408708 58.3080551,56.235657 C58.4928304,56.0304432 58.8089791,56.0138746 59.0141928,56.1986499 Z M16.6919449,56.235657 C16.8767202,56.4408708 16.8601516,56.7570194 16.6549378,56.9417947 L14.4255033,58.9491865 C14.2202895,59.1339618 13.9041409,59.1173932 13.7193656,58.9121794 C13.5345903,58.7069656 13.5511589,58.390817 13.7563727,58.2060417 L15.9858072,56.1986499 C16.1910209,56.0138746 16.5071696,56.0304432 16.6919449,56.235657 Z M59.9633201,55.0470582 L62.294758,56.9350193 C62.5093609,57.1088014 62.5424528,57.4236496 62.3686708,57.6382525 C62.1948887,57.8528554 61.8800405,57.8859473 61.6654376,57.7121653 L59.3339997,55.8242041 C59.1193968,55.6504221 59.0863049,55.3355739 59.2600869,55.1209709 C59.4338689,54.906368 59.7487172,54.8732761 59.9633201,55.0470582 Z M15.7399131,55.1209709 C15.9136951,55.3355739 15.8806032,55.6504221 15.6660003,55.8242041 L13.3345624,57.7121653 C13.1199595,57.8859473 12.8051113,57.8528554 12.6313292,57.6382525 C12.4575472,57.4236496 12.4906391,57.1088014 12.705242,56.9350193 L15.0366799,55.0470582 C15.2512828,54.8732761 15.5661311,54.906368 15.7399131,55.1209709 Z M60.850877,53.8473712 L63.2779279,55.610727 C63.5013318,55.7730394 63.5508562,56.0857242 63.3885438,56.3091281 C63.2262314,56.5325319 62.9135466,56.5820564 62.6901427,56.4197439 L60.2630917,54.6563882 C60.0396878,54.4940758 59.9901634,54.1813909 60.1524758,53.9579871 C60.3147883,53.7345832 60.6274731,53.6850588 60.850877,53.8473712 Z M14.8475242,53.9579871 C15.0098366,54.1813909 14.9603122,54.4940758 14.7369083,54.6563882 L12.3098573,56.4197439 C12.0864534,56.5820564 11.7737686,56.5325319 11.6114562,56.3091281 C11.4491438,56.0857242 11.4986682,55.7730394 11.7220721,55.610727 L14.149123,53.8473712 C14.3725269,53.6850588 14.6852117,53.7345832 14.8475242,53.9579871 Z M61.6744307,52.6028772 L64.1904424,54.2367943 C64.4220349,54.3871922 64.4878561,54.6968566 64.3374582,54.9284491 C64.1870603,55.1600416 63.8773959,55.2258628 63.6458034,55.0754649 L61.1297917,53.4415478 C60.8981992,53.2911499 60.832378,52.9814855 60.9827759,52.749893 C61.1331738,52.5183005 61.4428382,52.4524793 61.6744307,52.6028772 Z M14.0172241,52.749893 C14.167622,52.9814855 14.1018008,53.2911499 13.8702083,53.4415478 L11.3541966,55.0754649 C11.1226041,55.2258628 10.8129397,55.1600416 10.6625418,54.9284491 C10.5121439,54.6968566 10.5779651,54.3871922 10.8095576,54.2367943 L13.3255693,52.6028772 C13.5571618,52.4524793 13.8668262,52.5183005 14.0172241,52.749893 Z M62.431724,51.3169873 L65.0298002,52.8169873 C65.2689465,52.9550585 65.3508841,53.2608537 65.2128129,53.5 C65.0747417,53.7391463 64.7689465,53.8210839 64.5298002,53.6830127 L61.931724,52.1830127 C61.6925777,52.0449415 61.6106401,51.7391463 61.7487113,51.5 C61.8867825,51.2608537 62.1925777,51.1789161 62.431724,51.3169873 Z M13.2512887,51.5 C13.3893599,51.7391463 13.3074223,52.0449415 13.068276,52.1830127 L10.4701998,53.6830127 C10.2310535,53.8210839 9.92525827,53.7391463 9.78718708,53.5 C9.64911589,53.2608537 9.73105347,52.9550585 9.97019978,52.8169873 L12.568276,51.3169873 C12.8074223,51.1789161 13.1132175,51.2608537 13.2512887,51.5 Z M63.1206812,49.993226 L65.7937008,51.3551975 C66.0397454,51.4805635 66.1375748,51.7816513 66.0122088,52.027696 C65.8868428,52.2737406 65.5857549,52.37157 65.3397103,52.246204 L62.6666907,50.8842325 C62.420646,50.7588665 62.3228167,50.4577787 62.4481827,50.211734 C62.5735487,49.9656893 62.8746365,49.86786 63.1206812,49.993226 Z M12.5518173,50.211734 C12.6771833,50.4577787 12.579354,50.7588665 12.3333093,50.8842325 L9.66028974,52.246204 C9.41424508,52.37157 9.11315724,52.2737406 8.98779123,52.027696 C8.86242521,51.7816513 8.96025458,51.4805635 9.20629924,51.3551975 L11.8793188,49.993226 C12.1253635,49.86786 12.4264513,49.9656893 12.5518173,50.211734 Z M63.7394139,48.6352216 L66.4800502,49.8554315 C66.7323188,49.9677488 66.8457719,50.263304 66.7334546,50.5155726 C66.6211374,50.7678412 66.3255822,50.8812942 66.0733136,50.768977 L63.3326772,49.5487671 C63.0804086,49.4364498 62.9669556,49.1408946 63.0792728,48.888626 C63.19159,48.6363574 63.4871453,48.5229044 63.7394139,48.6352216 Z M11.9207272,48.888626 C12.0330444,49.1408946 11.9195914,49.4364498 11.6673228,49.5487671 L8.92668641,50.768977 C8.67441779,50.8812942 8.37886258,50.7678412 8.26654536,50.5155726 C8.15422813,50.263304 8.26768115,49.9677488 8.51994976,49.8554315 L11.2605861,48.6352216 C11.5128547,48.5229044 11.80841,48.6363574 11.9207272,48.888626 Z M64.2862261,47.2466963 L67.0869674,48.3218002 C67.3447685,48.4207608 67.4735342,48.7099733 67.3745736,48.9677744 C67.2756131,49.2255755 66.9864006,49.3543412 66.7285995,49.2553806 L63.9278582,48.1802768 C63.6700571,48.0813162 63.5412914,47.7921037 63.6402519,47.5343026 C63.7392125,47.2765015 64.028425,47.1477358 64.2862261,47.2466963 Z M11.3597481,47.5343026 C11.4587086,47.7921037 11.3299429,48.0813162 11.0721418,48.1802768 L8.27140054,49.2553806 C8.01359942,49.3543412 7.72438693,49.2255755 7.62542635,48.9677744 C7.52646578,48.7099733 7.65523147,48.4207608 7.91303259,48.3218002 L10.7137739,47.2466963 C10.971575,47.1477358 11.2607875,47.2765015 11.3597481,47.5343026 Z M64.7596192,45.8314561 L67.6127888,46.7585071 C67.8754158,46.8438398 68.0191412,47.1259168 67.9338085,47.3885438 C67.8484758,47.6511708 67.5663988,47.7948963 67.3037718,47.7095636 L64.4506022,46.7825126 C64.1879752,46.6971799 64.0442498,46.4151028 64.1295825,46.1524758 C64.2149151,45.8898488 64.4969922,45.7461234 64.7596192,45.8314561 Z M10.8704175,46.1524758 C10.9557502,46.4151028 10.8120248,46.6971799 10.5493978,46.7825126 L7.69622823,47.7095636 C7.43360123,47.7948963 7.15152417,47.6511708 7.06619148,47.3885438 C6.98085879,47.1259168 7.12458423,46.8438398 7.38721124,46.7585071 L10.2403808,45.8314561 C10.5030078,45.7461234 10.7850849,45.8898488 10.8704175,46.1524758 Z M65.1582956,44.3933799 L68.0560731,45.169837 C68.3228061,45.2413079 68.4810973,45.5154764 68.4096264,45.7822094 C68.3381555,46.0489425 68.0639871,46.2072337 67.797254,46.1357628 L64.8994765,45.3593057 C64.6327435,45.2878348 64.4744522,45.0136663 64.5459231,44.7469333 C64.617394,44.4802002 64.8915625,44.321909 65.1582956,44.3933799 Z M10.4540769,44.7469333 C10.5255478,45.0136663 10.3672565,45.2878348 10.1005235,45.3593057 L7.20274599,46.1357628 C6.93601294,46.2072337 6.66184446,46.0489425 6.59037356,45.7822094 C6.51890265,45.5154764 6.6771939,45.2413079 6.94392695,45.169837 L9.84170443,44.3933799 C10.1084375,44.321909 10.382606,44.4802002 10.4540769,44.7469333 Z M65.4811625,42.9364094 L68.4156053,43.5601445 C68.6857133,43.6175577 68.8581365,43.8830661 68.8007232,44.1531741 C68.74331,44.4232821 68.4778016,44.5957053 68.2076936,44.5382921 L65.2732508,43.914557 C65.0031428,43.8571438 64.8307196,43.5916353 64.8881328,43.3215273 C64.945546,43.0514193 65.2110545,42.8789962 65.4811625,42.9364094 Z M10.1118672,43.3215273 C10.1692804,43.5916353 9.99685723,43.8571438 9.72674922,43.914557 L6.79230642,44.5382921 C6.52219842,44.5957053 6.25669,44.4232821 6.19927678,44.1531741 C6.14186355,43.8830661 6.31428673,43.6175577 6.58439473,43.5601445 L9.51883753,42.9364094 C9.78894554,42.8789962 10.054454,43.0514193 10.1118672,43.3215273 Z M65.7273349,41.4645381 L68.6904,41.9338415 C68.9631426,41.9770397 69.1492251,42.2331603 69.1060269,42.5059029 C69.0628287,42.7786455 68.8067081,42.964728 68.5339655,42.9215298 L65.5709005,42.4522264 C65.2981579,42.4090282 65.1120754,42.1529076 65.1552735,41.880165 C65.1984717,41.6074224 65.4545923,41.4213399 65.7273349,41.4645381 Z M9.84472646,41.880165 C9.88792465,42.1529076 9.70184213,42.4090282 9.42909953,42.4522264 L6.4660345,42.9215298 C6.1932919,42.964728 5.93717129,42.7786455 5.8939731,42.5059029 C5.85077492,42.2331603 6.03685743,41.9770397 6.30960004,41.9338415 L9.27266506,41.4645381 C9.54540766,41.4213399 9.80152828,41.6074224 9.84472646,41.880165 Z M65.8961382,39.9818003 L68.8797039,40.2953856 C69.1543336,40.3242504 69.3535654,40.5702812 69.3247007,40.8449108 C69.2958359,41.1195405 69.0498051,41.3187723 68.7751755,41.2899075 L65.7916098,40.9763222 C65.5169801,40.9474574 65.3177483,40.7014266 65.3466131,40.426797 C65.3754778,40.1521673 65.6215086,39.9529355 65.8961382,39.9818003 Z M9.65338693,40.426797 C9.68225167,40.7014266 9.48301985,40.9474574 9.20839021,40.9763222 L6.22482453,41.2899075 C5.95019489,41.3187723 5.70416409,41.1195405 5.67529935,40.8449108 C5.64643461,40.5702812 5.84566643,40.3242504 6.12029606,40.2953856 L9.10386175,39.9818003 C9.37849139,39.9529355 9.62452219,40.1521673 9.65338693,40.426797 Z M65.9871097,38.49226 L68.9829983,38.6492679 C69.2587623,38.66372 69.4705973,38.8989867 69.4561451,39.1747506 C69.4416929,39.4505145 69.2064263,39.6623496 68.9306624,39.6478974 L65.9347738,39.4908895 C65.6590098,39.4764373 65.4471748,39.2411707 65.461627,38.9654068 C65.4760791,38.6896428 65.7113458,38.4778078 65.9871097,38.49226 Z M9.01289028,38.49226 C9.28865421,38.4778078 9.52392085,38.6896428 9.53837303,38.9654068 C9.5528252,39.2411707 9.34099017,39.4764373 9.06522624,39.4908895 L6.06933763,39.6478974 C5.7935737,39.6623496 5.55830706,39.4505145 5.54385489,39.1747506 C5.52940271,38.8989867 5.74123775,38.66372 6.01700168,38.6492679 L9.01289028,38.49226 Z M9,37 C9.27614237,37 9.5,37.2238576 9.5,37.5 C9.5,37.7761424 9.27614237,38 9,38 L6,38 C5.72385763,38 5.5,37.7761424 5.5,37.5 C5.5,37.2238576 5.72385763,37 6,37 L9,37 Z M69,37 C69.2761424,37 69.5,37.2238576 69.5,37.5 C69.5,37.7761424 69.2761424,38 69,38 L66,38 C65.7238576,38 65.5,37.7761424 65.5,37.5 C65.5,37.2238576 65.7238576,37 66,37 L69,37 Z M68.9306624,35.3521026 C69.2064263,35.3376504 69.4416929,35.5494855 69.4561451,35.8252494 C69.4705973,36.1010133 69.2587623,36.33628 68.9829983,36.3507321 L65.9871097,36.50774 C65.7113458,36.5221922 65.4760791,36.3103572 65.461627,36.0345932 C65.4471748,35.7588293 65.6590098,35.5235627 65.9347738,35.5091105 L68.9306624,35.3521026 Z M6.06933763,35.3521026 L9.06522624,35.5091105 C9.34099017,35.5235627 9.5528252,35.7588293 9.53837303,36.0345932 C9.52392085,36.3103572 9.28865421,36.5221922 9.01289028,36.50774 L6.01700168,36.3507321 C5.74123775,36.33628 5.52940271,36.1010133 5.54385489,35.8252494 C5.55830706,35.5494855 5.7935737,35.3376504 6.06933763,35.3521026 Z M69.3247007,34.1550892 C69.3535654,34.4297188 69.1543336,34.6757496 68.8797039,34.7046144 L65.8961382,35.0181997 C65.6215086,35.0470645 65.3754778,34.8478327 65.3466131,34.573203 C65.3177483,34.2985734 65.5169801,34.0525426 65.7916098,34.0236778 L68.7751755,33.7100925 C69.0498051,33.6812277 69.2958359,33.8804595 69.3247007,34.1550892 Z M6.22482453,33.7100925 L9.20839021,34.0236778 C9.48301985,34.0525426 9.68225167,34.2985734 9.65338693,34.573203 C9.62452219,34.8478327 9.37849139,35.0470645 9.10386175,35.0181997 L6.12029606,34.7046144 C5.84566643,34.6757496 5.64643461,34.4297188 5.67529935,34.1550892 C5.70416409,33.8804595 5.95019489,33.6812277 6.22482453,33.7100925 Z M69.1060269,32.4940971 C69.1492251,32.7668397 68.9631426,33.0229603 68.6904,33.0661585 L65.7273349,33.5354619 C65.4545923,33.5786601 65.1984717,33.3925776 65.1552735,33.119835 C65.1120754,32.8470924 65.2981579,32.5909718 65.5709005,32.5477736 L68.5339655,32.0784702 C68.8067081,32.035272 69.0628287,32.2213545 69.1060269,32.4940971 Z M6.4660345,32.0784702 L9.42909953,32.5477736 C9.70184213,32.5909718 9.88792465,32.8470924 9.84472646,33.119835 C9.80152828,33.3925776 9.54540766,33.5786601 9.27266506,33.5354619 L6.30960004,33.0661585 C6.03685743,33.0229603 5.85077492,32.7668397 5.8939731,32.4940971 C5.93717129,32.2213545 6.1932919,32.035272 6.4660345,32.0784702 Z M68.8007232,30.8468259 C68.8581365,31.1169339 68.6857133,31.3824423 68.4156053,31.4398555 L65.4811625,32.0635906 C65.2110545,32.1210038 64.945546,31.9485807 64.8881328,31.6784727 C64.8307196,31.4083647 65.0031428,31.1428562 65.2732508,31.085443 L68.2076936,30.4617079 C68.4778016,30.4042947 68.74331,30.5767179 68.8007232,30.8468259 Z M6.79230642,30.4617079 L9.72674922,31.085443 C9.99685723,31.1428562 10.1692804,31.4083647 10.1118672,31.6784727 C10.054454,31.9485807 9.78894554,32.1210038 9.51883753,32.0635906 L6.58439473,31.4398555 C6.31428673,31.3824423 6.14186355,31.1169339 6.19927678,30.8468259 C6.25669,30.5767179 6.52219842,30.4042947 6.79230642,30.4617079 Z M68.4096264,29.2177906 C68.4810973,29.4845236 68.3228061,29.7586921 68.0560731,29.830163 L65.1582956,30.6066201 C64.8915625,30.678091 64.617394,30.5197998 64.5459231,30.2530667 C64.4744522,29.9863337 64.6327435,29.7121652 64.8994765,29.6406943 L67.797254,28.8642372 C68.0639871,28.7927663 68.3381555,28.9510575 68.4096264,29.2177906 Z M7.20274599,28.8642372 L10.1005235,29.6406943 C10.3672565,29.7121652 10.5255478,29.9863337 10.4540769,30.2530667 C10.382606,30.5197998 10.1084375,30.678091 9.84170443,30.6066201 L6.94392695,29.830163 C6.6771939,29.7586921 6.51890265,29.4845236 6.59037356,29.2177906 C6.66184446,28.9510575 6.93601294,28.7927663 7.20274599,28.8642372 Z M67.9338085,27.6114562 C68.0191412,27.8740832 67.8754158,28.1561602 67.6127888,28.2414929 L64.7596192,29.1685439 C64.4969922,29.2538766 64.2149151,29.1101512 64.1295825,28.8475242 C64.0442498,28.5848972 64.1879752,28.3028201 64.4506022,28.2174874 L67.3037718,27.2904364 C67.5663988,27.2051037 67.8484758,27.3488292 67.9338085,27.6114562 Z M7.69622823,27.2904364 L10.5493978,28.2174874 C10.8120248,28.3028201 10.9557502,28.5848972 10.8704175,28.8475242 C10.7850849,29.1101512 10.5030078,29.2538766 10.2403808,29.1685439 L7.38721124,28.2414929 C7.12458423,28.1561602 6.98085879,27.8740832 7.06619148,27.6114562 C7.15152417,27.3488292 7.43360123,27.2051037 7.69622823,27.2904364 Z M67.3745736,26.0322256 C67.4735342,26.2900267 67.3447685,26.5792392 67.0869674,26.6781998 L64.2862261,27.7533037 C64.028425,27.8522642 63.7392125,27.7234985 63.6402519,27.4656974 C63.5412914,27.2078963 63.6700571,26.9186838 63.9278582,26.8197232 L66.7285995,25.7446194 C66.9864006,25.6456588 67.2756131,25.7744245 67.3745736,26.0322256 Z M8.27140054,25.7446194 L11.0721418,26.8197232 C11.3299429,26.9186838 11.4587086,27.2078963 11.3597481,27.4656974 C11.2607875,27.7234985 10.971575,27.8522642 10.7137739,27.7533037 L7.91303259,26.6781998 C7.65523147,26.5792392 7.52646578,26.2900267 7.62542635,26.0322256 C7.72438693,25.7744245 8.01359942,25.6456588 8.27140054,25.7446194 Z M66.7334546,24.4844274 C66.8457719,24.736696 66.7323188,25.0322512 66.4800502,25.1445685 L63.7394139,26.3647784 C63.4871453,26.4770956 63.19159,26.3636426 63.0792728,26.111374 C62.9669556,25.8591054 63.0804086,25.5635502 63.3326772,25.4512329 L66.0733136,24.231023 C66.3255822,24.1187058 66.6211374,24.2321588 66.7334546,24.4844274 Z M8.92668641,24.231023 L11.6673228,25.4512329 C11.9195914,25.5635502 12.0330444,25.8591054 11.9207272,26.111374 C11.80841,26.3636426 11.5128547,26.4770956 11.2605861,26.3647784 L8.51994976,25.1445685 C8.26768115,25.0322512 8.15422813,24.736696 8.26654536,24.4844274 C8.37886258,24.2321588 8.67441779,24.1187058 8.92668641,24.231023 Z M66.0122088,22.972304 C66.1375748,23.2183487 66.0397454,23.5194365 65.7937008,23.6448025 L63.1206812,25.006774 C62.8746365,25.13214 62.5735487,25.0343107 62.4481827,24.788266 C62.3228167,24.5422213 62.420646,24.2411335 62.6666907,24.1157675 L65.3397103,22.753796 C65.5857549,22.62843 65.8868428,22.7262594 66.0122088,22.972304 Z M9.66028974,22.753796 L12.3333093,24.1157675 C12.579354,24.2411335 12.6771833,24.5422213 12.5518173,24.788266 C12.4264513,25.0343107 12.1253635,25.13214 11.8793188,25.006774 L9.20629924,23.6448025 C8.96025458,23.5194365 8.86242521,23.2183487 8.98779123,22.972304 C9.11315724,22.7262594 9.41424508,22.62843 9.66028974,22.753796 Z M65.2128129,21.5 C65.3508841,21.7391463 65.2689465,22.0449415 65.0298002,22.1830127 L62.431724,23.6830127 C62.1925777,23.8210839 61.8867825,23.7391463 61.7487113,23.5 C61.6106401,23.2608537 61.6925777,22.9550585 61.931724,22.8169873 L64.5298002,21.3169873 C64.7689465,21.1789161 65.0747417,21.2608537 65.2128129,21.5 Z M10.4701998,21.3169873 L13.068276,22.8169873 C13.3074223,22.9550585 13.3893599,23.2608537 13.2512887,23.5 C13.1132175,23.7391463 12.8074223,23.8210839 12.568276,23.6830127 L9.97019978,22.1830127 C9.73105347,22.0449415 9.64911589,21.7391463 9.78718708,21.5 C9.92525827,21.2608537 10.2310535,21.1789161 10.4701998,21.3169873 Z M64.3374582,20.0715509 C64.4878561,20.3031434 64.4220349,20.6128078 64.1904424,20.7632057 L61.6744307,22.3971228 C61.4428382,22.5475207 61.1331738,22.4816995 60.9827759,22.250107 C60.832378,22.0185145 60.8981992,21.7088501 61.1297917,21.5584522 L63.6458034,19.9245351 C63.8773959,19.7741372 64.1870603,19.8399584 64.3374582,20.0715509 Z M11.3541966,19.9245351 L13.8702083,21.5584522 C14.1018008,21.7088501 14.167622,22.0185145 14.0172241,22.250107 C13.8668262,22.4816995 13.5571618,22.5475207 13.3255693,22.3971228 L10.8095576,20.7632057 C10.5779651,20.6128078 10.5121439,20.3031434 10.6625418,20.0715509 C10.8129397,19.8399584 11.1226041,19.7741372 11.3541966,19.9245351 Z M63.3885438,18.6908719 C63.5508562,18.9142758 63.5013318,19.2269606 63.2779279,19.389273 L60.850877,21.1526288 C60.6274731,21.3149412 60.3147883,21.2654168 60.1524758,21.0420129 C59.9901634,20.8186091 60.0396878,20.5059242 60.2630917,20.3436118 L62.6901427,18.5802561 C62.9135466,18.4179436 63.2262314,18.4674681 63.3885438,18.6908719 Z M12.3098573,18.5802561 L14.7369083,20.3436118 C14.9603122,20.5059242 15.0098366,20.8186091 14.8475242,21.0420129 C14.6852117,21.2654168 14.3725269,21.3149412 14.149123,21.1526288 L11.7220721,19.389273 C11.4986682,19.2269606 11.4491438,18.9142758 11.6114562,18.6908719 C11.7737686,18.4674681 12.0864534,18.4179436 12.3098573,18.5802561 Z M62.3686708,17.3617475 C62.5424528,17.5763504 62.5093609,17.8911986 62.294758,18.0649807 L59.9633201,19.9529418 C59.7487172,20.1267239 59.4338689,20.093632 59.2600869,19.8790291 C59.0863049,19.6644261 59.1193968,19.3495779 59.3339997,19.1757959 L61.6654376,17.2878347 C61.8800405,17.1140527 62.1948887,17.1471446 62.3686708,17.3617475 Z M13.3345624,17.2878347 L15.6660003,19.1757959 C15.8806032,19.3495779 15.9136951,19.6644261 15.7399131,19.8790291 C15.5661311,20.093632 15.2512828,20.1267239 15.0366799,19.9529418 L12.705242,18.0649807 C12.4906391,17.8911986 12.4575472,17.5763504 12.6313292,17.3617475 C12.8051113,17.1471446 13.1199595,17.1140527 13.3345624,17.2878347 Z M61.2806344,16.0878206 C61.4654097,16.2930344 61.4488411,16.609183 61.2436273,16.7939583 L59.0141928,18.8013501 C58.8089791,18.9861254 58.4928304,18.9695568 58.3080551,18.764343 C58.1232798,18.5591292 58.1398484,18.2429806 58.3450622,18.0582053 L60.5744967,16.0508135 C60.7797105,15.8660382 61.0958591,15.8826068 61.2806344,16.0878206 Z M14.4255033,16.0508135 L16.6549378,18.0582053 C16.8601516,18.2429806 16.8767202,18.5591292 16.6919449,18.764343 C16.5071696,18.9695568 16.1910209,18.9861254 15.9858072,18.8013501 L13.7563727,16.7939583 C13.5511589,16.609183 13.5345903,16.2930344 13.7193656,16.0878206 C13.9041409,15.8826068 14.2202895,15.8660382 14.4255033,16.0508135 Z M60.127417,14.872583 C60.3226791,15.0678451 60.3226791,15.3844276 60.127417,15.5796898 L58.0060967,17.7010101 C57.8108345,17.8962723 57.494252,17.8962723 57.2989899,17.7010101 C57.1037277,17.505748 57.1037277,17.1891655 57.2989899,16.9939033 L59.4203102,14.872583 C59.6155724,14.6773209 59.9321549,14.6773209 60.127417,14.872583 Z M15.5796898,14.872583 L17.7010101,16.9939033 C17.8962723,17.1891655 17.8962723,17.505748 17.7010101,17.7010101 C17.505748,17.8962723 17.1891655,17.8962723 16.9939033,17.7010101 L14.872583,15.5796898 C14.6773209,15.3844276 14.6773209,15.0678451 14.872583,14.872583 C15.0678451,14.6773209 15.3844276,14.6773209 15.5796898,14.872583 Z M58.9121794,13.7193656 C59.1173932,13.9041409 59.1339618,14.2202895 58.9491865,14.4255033 L56.9417947,16.6549378 C56.7570194,16.8601516 56.4408708,16.8767202 56.235657,16.6919449 C56.0304432,16.5071696 56.0138746,16.1910209 56.1986499,15.9858072 L58.2060417,13.7563727 C58.390817,13.5511589 58.7069656,13.5345903 58.9121794,13.7193656 Z M16.7939583,13.7563727 L18.8013501,15.9858072 C18.9861254,16.1910209 18.9695568,16.5071696 18.764343,16.6919449 C18.5591292,16.8767202 18.2429806,16.8601516 18.0582053,16.6549378 L16.0508135,14.4255033 C15.8660382,14.2202895 15.8826068,13.9041409 16.0878206,13.7193656 C16.2930344,13.5345903 16.609183,13.5511589 16.7939583,13.7563727 Z M57.6382525,12.6313292 C57.8528554,12.8051113 57.8859473,13.1199595 57.7121653,13.3345624 L55.8242041,15.6660003 C55.6504221,15.8806032 55.3355739,15.9136951 55.1209709,15.7399131 C54.906368,15.5661311 54.8732761,15.2512828 55.0470582,15.0366799 L56.9350193,12.705242 C57.1088014,12.4906391 57.4236496,12.4575472 57.6382525,12.6313292 Z M18.0649807,12.705242 L19.9529418,15.0366799 C20.1267239,15.2512828 20.093632,15.5661311 19.8790291,15.7399131 C19.6644261,15.9136951 19.3495779,15.8806032 19.1757959,15.6660003 L17.2878347,13.3345624 C17.1140527,13.1199595 17.1471446,12.8051113 17.3617475,12.6313292 C17.5763504,12.4575472 17.8911986,12.4906391 18.0649807,12.705242 Z M56.3091281,11.6114562 C56.5325319,11.7737686 56.5820564,12.0864534 56.4197439,12.3098573 L54.6563882,14.7369083 C54.4940758,14.9603122 54.1813909,15.0098366 53.9579871,14.8475242 C53.7345832,14.6852117 53.6850588,14.3725269 53.8473712,14.149123 L55.610727,11.7220721 C55.7730394,11.4986682 56.0857242,11.4491438 56.3091281,11.6114562 Z M19.389273,11.7220721 L21.1526288,14.149123 C21.3149412,14.3725269 21.2654168,14.6852117 21.0420129,14.8475242 C20.8186091,15.0098366 20.5059242,14.9603122 20.3436118,14.7369083 L18.5802561,12.3098573 C18.4179436,12.0864534 18.4674681,11.7737686 18.6908719,11.6114562 C18.9142758,11.4491438 19.2269606,11.4986682 19.389273,11.7220721 Z M54.9284491,10.6625418 C55.1600416,10.8129397 55.2258628,11.1226041 55.0754649,11.3541966 L53.4415478,13.8702083 C53.2911499,14.1018008 52.9814855,14.167622 52.749893,14.0172241 C52.5183005,13.8668262 52.4524793,13.5571618 52.6028772,13.3255693 L54.2367943,10.8095576 C54.3871922,10.5779651 54.6968566,10.5121439 54.9284491,10.6625418 Z M20.7632057,10.8095576 L22.3971228,13.3255693 C22.5475207,13.5571618 22.4816995,13.8668262 22.250107,14.0172241 C22.0185145,14.167622 21.7088501,14.1018008 21.5584522,13.8702083 L19.9245351,11.3541966 C19.7741372,11.1226041 19.8399584,10.8129397 20.0715509,10.6625418 C20.3031434,10.5121439 20.6128078,10.5779651 20.7632057,10.8095576 Z M53.5,9.78718708 C53.7391463,9.92525827 53.8210839,10.2310535 53.6830127,10.4701998 L52.1830127,13.068276 C52.0449415,13.3074223 51.7391463,13.3893599 51.5,13.2512887 C51.2608537,13.1132175 51.1789161,12.8074223 51.3169873,12.568276 L52.8169873,9.97019978 C52.9550585,9.73105347 53.2608537,9.64911589 53.5,9.78718708 Z M22.1830127,9.97019978 L23.6830127,12.568276 C23.8210839,12.8074223 23.7391463,13.1132175 23.5,13.2512887 C23.2608537,13.3893599 22.9550585,13.3074223 22.8169873,13.068276 L21.3169873,10.4701998 C21.1789161,10.2310535 21.2608537,9.92525827 21.5,9.78718708 C21.7391463,9.64911589 22.0449415,9.73105347 22.1830127,9.97019978 Z M52.027696,8.98779123 C52.2737406,9.11315724 52.37157,9.41424508 52.246204,9.66028974 L50.8842325,12.3333093 C50.7588665,12.579354 50.4577787,12.6771833 50.211734,12.5518173 C49.9656893,12.4264513 49.86786,12.1253635 49.993226,11.8793188 L51.3551975,9.20629924 C51.4805635,8.96025458 51.7816513,8.86242521 52.027696,8.98779123 Z M23.6448025,9.20629924 L25.006774,11.8793188 C25.13214,12.1253635 25.0343107,12.4264513 24.788266,12.5518173 C24.5422213,12.6771833 24.2411335,12.579354 24.1157675,12.3333093 L22.753796,9.66028974 C22.62843,9.41424508 22.7262594,9.11315724 22.972304,8.98779123 C23.2183487,8.86242521 23.5194365,8.96025458 23.6448025,9.20629924 Z M50.5155726,8.26654536 C50.7678412,8.37886258 50.8812942,8.67441779 50.768977,8.92668641 L49.5487671,11.6673228 C49.4364498,11.9195914 49.1408946,12.0330444 48.888626,11.9207272 C48.6363574,11.80841 48.5229044,11.5128547 48.6352216,11.2605861 L49.8554315,8.51994976 C49.9677488,8.26768115 50.263304,8.15422813 50.5155726,8.26654536 Z M25.1445685,8.51994976 L26.3647784,11.2605861 C26.4770956,11.5128547 26.3636426,11.80841 26.111374,11.9207272 C25.8591054,12.0330444 25.5635502,11.9195914 25.4512329,11.6673228 L24.231023,8.92668641 C24.1187058,8.67441779 24.2321588,8.37886258 24.4844274,8.26654536 C24.736696,8.15422813 25.0322512,8.26768115 25.1445685,8.51994976 Z M48.9677744,7.62542635 C49.2255755,7.72438693 49.3543412,8.01359942 49.2553806,8.27140054 L48.1802768,11.0721418 C48.0813162,11.3299429 47.7921037,11.4587086 47.5343026,11.3597481 C47.2765015,11.2607875 47.1477358,10.971575 47.2466963,10.7137739 L48.3218002,7.91303259 C48.4207608,7.65523147 48.7099733,7.52646578 48.9677744,7.62542635 Z M26.6781998,7.91303259 L27.7533037,10.7137739 C27.8522642,10.971575 27.7234985,11.2607875 27.4656974,11.3597481 C27.2078963,11.4587086 26.9186838,11.3299429 26.8197232,11.0721418 L25.7446194,8.27140054 C25.6456588,8.01359942 25.7744245,7.72438693 26.0322256,7.62542635 C26.2900267,7.52646578 26.5792392,7.65523147 26.6781998,7.91303259 Z M47.3885438,7.06619148 C47.6511708,7.15152417 47.7948963,7.43360123 47.7095636,7.69622823 L46.7825126,10.5493978 C46.6971799,10.8120248 46.4151028,10.9557502 46.1524758,10.8704175 C45.8898488,10.7850849 45.7461234,10.5030078 45.8314561,10.2403808 L46.7585071,7.38721124 C46.8438398,7.12458423 47.1259168,6.98085879 47.3885438,7.06619148 Z M28.2414929,7.38721124 L29.1685439,10.2403808 C29.2538766,10.5030078 29.1101512,10.7850849 28.8475242,10.8704175 C28.5848972,10.9557502 28.3028201,10.8120248 28.2174874,10.5493978 L27.2904364,7.69622823 C27.2051037,7.43360123 27.3488292,7.15152417 27.6114562,7.06619148 C27.8740832,6.98085879 28.1561602,7.12458423 28.2414929,7.38721124 Z M45.7822094,6.59037356 C46.0489425,6.66184446 46.2072337,6.93601294 46.1357628,7.20274599 L45.3593057,10.1005235 C45.2878348,10.3672565 45.0136663,10.5255478 44.7469333,10.4540769 C44.4802002,10.382606 44.321909,10.1084375 44.3933799,9.84170443 L45.169837,6.94392695 C45.2413079,6.6771939 45.5154764,6.51890265 45.7822094,6.59037356 Z M29.830163,6.94392695 L30.6066201,9.84170443 C30.678091,10.1084375 30.5197998,10.382606 30.2530667,10.4540769 C29.9863337,10.5255478 29.7121652,10.3672565 29.6406943,10.1005235 L28.8642372,7.20274599 C28.7927663,6.93601294 28.9510575,6.66184446 29.2177906,6.59037356 C29.4845236,6.51890265 29.7586921,6.6771939 29.830163,6.94392695 Z M44.1531741,6.19927678 C44.4232821,6.25669 44.5957053,6.52219842 44.5382921,6.79230642 L43.914557,9.72674922 C43.8571438,9.99685723 43.5916353,10.1692804 43.3215273,10.1118672 C43.0514193,10.054454 42.8789962,9.78894554 42.9364094,9.51883753 L43.5601445,6.58439473 C43.6175577,6.31428673 43.8830661,6.14186355 44.1531741,6.19927678 Z M31.4398555,6.58439473 L32.0635906,9.51883753 C32.1210038,9.78894554 31.9485807,10.054454 31.6784727,10.1118672 C31.4083647,10.1692804 31.1428562,9.99685723 31.085443,9.72674922 L30.4617079,6.79230642 C30.4042947,6.52219842 30.5767179,6.25669 30.8468259,6.19927678 C31.1169339,6.14186355 31.3824423,6.31428673 31.4398555,6.58439473 Z M42.5059029,5.8939731 C42.7786455,5.93717129 42.964728,6.1932919 42.9215298,6.4660345 L42.4522264,9.42909953 C42.4090282,9.70184213 42.1529076,9.88792465 41.880165,9.84472646 C41.6074224,9.80152828 41.4213399,9.54540766 41.4645381,9.27266506 L41.9338415,6.30960004 C41.9770397,6.03685743 42.2331603,5.85077492 42.5059029,5.8939731 Z M33.0661585,6.30960004 L33.5354619,9.27266506 C33.5786601,9.54540766 33.3925776,9.80152828 33.119835,9.84472646 C32.8470924,9.88792465 32.5909718,9.70184213 32.5477736,9.42909953 L32.0784702,6.4660345 C32.035272,6.1932919 32.2213545,5.93717129 32.4940971,5.8939731 C32.7668397,5.85077492 33.0229603,6.03685743 33.0661585,6.30960004 Z M40.8449108,5.67529935 C41.1195405,5.70416409 41.3187723,5.95019489 41.2899075,6.22482453 L40.9763222,9.20839021 C40.9474574,9.48301985 40.7014266,9.68225167 40.426797,9.65338693 C40.1521673,9.62452219 39.9529355,9.37849139 39.9818003,9.10386175 L40.2953856,6.12029606 C40.3242504,5.84566643 40.5702812,5.64643461 40.8449108,5.67529935 Z M34.7046144,6.12029606 L35.0181997,9.10386175 C35.0470645,9.37849139 34.8478327,9.62452219 34.573203,9.65338693 C34.2985734,9.68225167 34.0525426,9.48301985 34.0236778,9.20839021 L33.7100925,6.22482453 C33.6812277,5.95019489 33.8804595,5.70416409 34.1550892,5.67529935 C34.4297188,5.64643461 34.6757496,5.84566643 34.7046144,6.12029606 Z M39.1747506,5.54385489 C39.4505145,5.55830706 39.6623496,5.7935737 39.6478974,6.06933763 L39.4908895,9.06522624 C39.4764373,9.34099017 39.2411707,9.5528252 38.9654068,9.53837303 C38.6896428,9.52392085 38.4778078,9.28865421 38.49226,9.01289028 L38.6492679,6.01700168 C38.66372,5.74123775 38.8989867,5.52940271 39.1747506,5.54385489 Z M35.8252494,5.54385489 C36.1010133,5.52940271 36.33628,5.74123775 36.3507321,6.01700168 L36.50774,9.01289028 C36.5221922,9.28865421 36.3103572,9.52392085 36.0345932,9.53837303 C35.7588293,9.5528252 35.5235627,9.34099017 35.5091105,9.06522624 L35.3521026,6.06933763 C35.3376504,5.7935737 35.5494855,5.55830706 35.8252494,5.54385489 Z M37.5,5.5 C37.7761424,5.5 38,5.72385763 38,6 L38,9 C38,9.27614237 37.7761424,9.5 37.5,9.5 C37.2238576,9.5 37,9.27614237 37,9 L37,6 C37,5.72385763 37.2238576,5.5 37.5,5.5 Z" id="形状结合" fill="#4FFCFF"></path>
                    <path d="M7.62148727,54.7454294 C17.0523427,71.0801502 37.8249065,76.7842192 54.2490745,67.6534857 L54.7454294,67.3722517 L56.2453042,69.970111 C38.4901729,80.2210408 15.8362572,74.3010265 5.33801808,56.7797969 L5.02362795,56.2453042 L7.62148727,54.7454294 Z M56.2453042,5.02362795 C74.0004355,15.2745578 80.2005105,37.8534315 70.2758002,55.705788 L69.970111,56.2453042 L67.3722517,54.7454294 C76.8031071,38.4107086 71.3566939,17.5691062 55.2371627,7.9107262 L54.7454294,7.62148727 L56.2453042,5.02362795 Z M37.4968695,0 L37.4968695,2.99974956 C18.6351586,2.99974956 3.30900803,18.137283 3.00437119,36.9263965 L2.99974956,37.4968695 L0,37.4968695 C0,16.9950098 16.4538407,0.336150509 36.8767902,0.0050235092 L37.4968695,0 Z" id="光" fill="#4FFCFF" fill-rule="nonzero" filter="url(#filter-3)"></path>
                    <path d="M7.62148727,54.7454294 C17.0523427,71.0801502 37.8249065,76.7842192 54.2490745,67.6534857 L54.7454294,67.3722517 L56.2453042,69.970111 C38.4901729,80.2210408 15.8362572,74.3010265 5.33801808,56.7797969 L5.02362795,56.2453042 L7.62148727,54.7454294 Z M56.2453042,5.02362795 C74.0004355,15.2745578 80.2005105,37.8534315 70.2758002,55.705788 L69.970111,56.2453042 L67.3722517,54.7454294 C76.8031071,38.4107086 71.3566939,17.5691062 55.2371627,7.9107262 L54.7454294,7.62148727 L56.2453042,5.02362795 Z M37.4968695,7.10542736e-15 L37.4968695,2.99974956 C18.6351586,2.99974956 3.30900803,18.137283 3.00437119,36.9263965 L2.99974956,37.4968695 L0,37.4968695 C0,16.9950098 16.4538407,0.336150509 36.8767902,0.0050235092 L37.4968695,7.10542736e-15 Z" id="三" fill="#4FFCFF" fill-rule="nonzero"></path>
                </g>
            </g>
        </g>
    </g>
</svg>