<?xml version="1.0" encoding="UTF-8"?>
<svg width="74px" height="74px" viewBox="0 0 74 74" version="1.1" xmlns="http://www.w3.org/2000/svg" xmlns:xlink="http://www.w3.org/1999/xlink">
    <title>nav_正常</title>
    <defs>
        <circle id="path-1" cx="37" cy="37" r="37"></circle>
        <filter x="-12.2%" y="-12.2%" width="124.3%" height="124.3%" filterUnits="objectBoundingBox" id="filter-2">
            <feGaussianBlur stdDeviation="5.5" in="SourceAlpha" result="shadowBlurInner1"></feGaussianBlur>
            <feOffset dx="7" dy="7" in="shadowBlurInner1" result="shadowOffsetInner1"></feOffset>
            <feComposite in="shadowOffsetInner1" in2="SourceAlpha" operator="arithmetic" k2="-1" k3="1" result="shadowInnerInner1"></feComposite>
            <feColorMatrix values="0 0 0 0 0.0352941176   0 0 0 0 0.31372549   0 0 0 0 0.552941176  0 0 0 1 0" type="matrix" in="shadowInnerInner1"></feColorMatrix>
        </filter>
    </defs>
    <g id="DV" stroke="none" stroke-width="1" fill="none" fill-rule="evenodd">
        <g id="021-海军蓝(NavyBlue)-首页" transform="translate(-1053.000000, -927.000000)">
            <g id="底部菜单" transform="translate(530.000000, 840.000000)">
                <g id="nav_正常" transform="translate(523.000000, 87.000000)">
                    <g id="椭圆形" opacity="0.676618304">
                        <use fill="#0F2373" fill-rule="evenodd" xlink:href="#path-1"></use>
                        <use fill="black" fill-opacity="1" filter="url(#filter-2)" xlink:href="#path-1"></use>
                    </g>
                    <circle id="椭圆形" stroke="#00FFFC" opacity="0.649999976" cx="37" cy="37" r="29.7727273"></circle>
                    <path d="M37.0606061,68.3939394 C37.3367484,68.3939394 37.5606061,68.617797 37.5606061,68.8939394 L37.5606061,72.3787879 C37.5606061,72.6549303 37.3367484,72.8787879 37.0606061,72.8787879 L36.9393939,72.8787879 C36.6632516,72.8787879 36.4393939,72.6549303 36.4393939,72.3787879 L36.4393939,68.8939394 C36.4393939,68.617797 36.6632516,68.3939394 36.9393939,68.3939394 L37.0606061,68.3939394 Z M38.7035548,68.3477432 C38.9793188,68.333291 39.2145854,68.5451261 39.2290376,68.82089 L39.4114205,72.3009626 C39.4258726,72.5767266 39.2140376,72.8119932 38.9382737,72.8264454 L38.8172277,72.8327891 C38.5414637,72.8472413 38.3061971,72.6354063 38.2917449,72.3596423 L38.109362,68.8795697 C38.0949099,68.6038058 38.3067449,68.3685391 38.5825088,68.354087 L38.7035548,68.3477432 Z M35.2964452,68.3477432 L35.4174912,68.354087 C35.6932551,68.3685391 35.9050901,68.6038058 35.890638,68.8795697 L35.7082551,72.3596423 C35.6938029,72.6354063 35.4585363,72.8472413 35.1827723,72.8327891 L35.0617263,72.8264454 C34.7859624,72.8119932 34.5741274,72.5767266 34.5885795,72.3009626 L34.7709624,68.82089 C34.7854146,68.5451261 35.0206812,68.333291 35.2964452,68.3477432 Z M40.8913595,68.6606218 L41.2556253,72.1263799 C41.2844901,72.4010095 41.0852583,72.6470403 40.8106286,72.6759051 L40.6900805,72.6885752 C40.4154509,72.7174399 40.1694201,72.5182081 40.1405553,72.2435785 L39.7762895,68.7778203 C39.7474247,68.5031907 39.9466565,68.2571599 40.2212862,68.2282952 L40.3418343,68.2156251 C40.6164639,68.1867603 40.8624947,68.3859921 40.8913595,68.6606218 Z M33.6581657,68.2156251 L33.7787138,68.2282952 C34.0533435,68.2571599 34.2525753,68.5031907 34.2237105,68.7778203 L33.8594447,72.2435785 C33.8305799,72.5182081 33.5845491,72.7174399 33.3099195,72.6885752 L33.1893714,72.6759051 C32.9147417,72.6470403 32.7155099,72.4010095 32.7443747,72.1263799 L33.1086405,68.6606218 C33.1375053,68.3859921 33.3835361,68.1867603 33.6581657,68.2156251 Z M42.5430154,68.413574 L43.0881658,71.8555182 C43.131364,72.1282608 42.9452815,72.3843814 42.6725389,72.4275796 L42.5528191,72.4465413 C42.2800765,72.4897395 42.0239559,72.303657 41.9807577,72.0309144 L41.4356073,68.5889702 C41.3924091,68.3162276 41.5784916,68.060107 41.8512342,68.0169088 L41.970954,67.997947 C42.2436966,67.9547488 42.4998172,68.1408314 42.5430154,68.413574 Z M32.029046,67.997947 L32.1487658,68.0169088 C32.4215084,68.060107 32.6075909,68.3162276 32.5643927,68.5889702 L32.0192423,72.0309144 C31.9760441,72.303657 31.7199235,72.4897395 31.4471809,72.4465413 L31.3274611,72.4275796 C31.0547185,72.3843814 30.868636,72.1282608 30.9118342,71.8555182 L31.4569846,68.413574 C31.5001828,68.1408314 31.7563034,67.9547488 32.029046,67.997947 Z M44.1794783,68.0804237 L44.9040191,71.4891199 C44.9614323,71.7592279 44.7890091,72.0247363 44.5189011,72.0821496 L44.4003378,72.107351 C44.1302298,72.1647642 43.8647214,71.992341 43.8073081,71.722233 L43.0827674,68.3135369 C43.0253542,68.0434288 43.1977773,67.7779204 43.4678853,67.7205072 L43.5864487,67.6953058 C43.8565567,67.6378926 44.1220651,67.8103157 44.1794783,68.0804237 Z M30.4135513,67.6953058 L30.5321147,67.7205072 C30.8022227,67.7779204 30.9746458,68.0434288 30.9172326,68.3135369 L30.1926919,71.722233 C30.1352786,71.992341 29.8697702,72.1647642 29.5996622,72.107351 L29.4810989,72.0821496 C29.2109909,72.0247363 29.0385677,71.7592279 29.0959809,71.4891199 L29.8205217,68.0804237 C29.8779349,67.8103157 30.1434433,67.6378926 30.4135513,67.6953058 Z M45.7962628,67.6620842 L46.698208,71.0281894 C46.7696789,71.2949224 46.6113876,71.5690909 46.3446546,71.6405618 L46.2275727,71.6719338 C45.9608396,71.7434047 45.6866711,71.5851135 45.6152002,71.3183804 L44.7132551,67.9522753 C44.6417842,67.6855422 44.8000754,67.4113738 45.0668085,67.3399029 L45.1838904,67.3085308 C45.4506234,67.2370599 45.7247919,67.3953512 45.7962628,67.6620842 Z M28.8161096,67.3085308 L28.9331915,67.3399029 C29.1999246,67.4113738 29.3582158,67.6855422 29.2867449,67.9522753 L28.3847998,71.3183804 C28.3133289,71.5851135 28.0391604,71.7434047 27.7724273,71.6719338 L27.6553454,71.6405618 C27.3886124,71.5690909 27.2303211,71.2949224 27.301792,71.0281894 L28.2037372,67.6620842 C28.2752081,67.3953512 28.5493766,67.2370599 28.8161096,67.3085308 Z M47.3889373,67.1597021 L48.4658147,70.47399 C48.5511474,70.736617 48.407422,71.018694 48.144795,71.1040267 L48.0295154,71.1414833 C47.7668884,71.226816 47.4848113,71.0830906 47.3994786,70.8204636 L46.3226012,67.5061757 C46.2372686,67.2435487 46.380994,66.9614716 46.643621,66.8761389 L46.7589006,66.8386823 C47.0215276,66.7533496 47.3036047,66.8970751 47.3889373,67.1597021 Z M27.2410994,66.8386823 L27.356379,66.8761389 C27.619006,66.9614716 27.7627314,67.2435487 27.6773988,67.5061757 L26.6005214,70.8204636 C26.5151887,71.0830906 26.2331116,71.226816 25.9704846,71.1414833 L25.855205,71.1040267 C25.592578,71.018694 25.4488526,70.736617 25.5341853,70.47399 L26.6110627,67.1597021 C26.6963953,66.8970751 26.9784724,66.7533496 27.2410994,66.8386823 Z M48.9531365,66.5746543 L50.2019945,69.8280406 C50.3009551,70.0858417 50.1721894,70.3750542 49.9143883,70.4740148 L49.801227,70.5174534 C49.5434259,70.6164139 49.2542134,70.4876482 49.1552528,70.2298471 L47.9063948,66.9764608 C47.8074342,66.7186597 47.9361999,66.4294472 48.1940011,66.3304866 L48.3071623,66.2870481 C48.5649634,66.1880875 48.8541759,66.3168532 48.9531365,66.5746543 Z M25.6928377,66.2870481 L25.8059989,66.3304866 C26.0638001,66.4294472 26.1925658,66.7186597 26.0936052,66.9764608 L24.8447472,70.2298471 C24.7457866,70.4876482 24.4565741,70.6164139 24.198773,70.5174534 L24.0856117,70.4740148 C23.8278106,70.3750542 23.6990449,70.0858417 23.7980055,69.8280406 L25.0468635,66.5746543 C25.1458241,66.3168532 25.4350366,66.1880875 25.6928377,66.2870481 Z M50.484573,65.9085444 L51.9019885,69.0921119 C52.0143058,69.3443805 51.9008527,69.6399358 51.6485841,69.752253 L51.5378513,69.8015544 C51.2855827,69.9138716 50.9900275,69.8004186 50.8777103,69.54815 L49.4602947,66.3645825 C49.3479775,66.1123139 49.4614305,65.8167587 49.7136991,65.7044414 L49.8244319,65.65514 C50.0767005,65.5428228 50.3722557,65.6562758 50.484573,65.9085444 Z M24.1755681,65.65514 L24.2863009,65.7044414 C24.5385695,65.8167587 24.6520225,66.1123139 24.5397053,66.3645825 L23.1222897,69.54815 C23.0099725,69.8004186 22.7144173,69.9138716 22.4621487,69.8015544 L22.3514159,69.752253 C22.0991473,69.6399358 21.9856942,69.3443805 22.0980115,69.0921119 L23.515427,65.9085444 C23.6277443,65.6562758 23.9232995,65.5428228 24.1755681,65.65514 Z M51.9790491,65.1631983 L53.5611372,68.268221 C53.6865033,68.5142656 53.5886739,68.8153535 53.3426292,68.9407195 L53.2346284,68.9957487 C52.9885838,69.1211147 52.6874959,69.0232853 52.5621299,68.7772406 L50.9800418,65.6722179 C50.8546758,65.4261733 50.9525052,65.1250854 51.1985498,64.9997194 L51.3065506,64.9446902 C51.5525953,64.8193242 51.8536831,64.9171536 51.9790491,65.1631983 Z M22.6934494,64.9446902 L22.8014502,64.9997194 C23.0474948,65.1250854 23.1453242,65.4261733 23.0199582,65.6722179 L21.4378701,68.7772406 C21.3125041,69.0232853 21.0114162,69.1211147 20.7653716,68.9957487 L20.6573708,68.9407195 C20.4113261,68.8153535 20.3134967,68.5142656 20.4388628,68.268221 L22.0209509,65.1631983 C22.1463169,64.9171536 22.4474047,64.8193242 22.6934494,64.9446902 Z M53.4324688,64.3406587 L55.174893,67.358626 C55.3129642,67.5977723 55.2310266,67.9035675 54.9918803,68.0416387 L54.8869076,68.1022448 C54.6477612,68.240316 54.341966,68.1583784 54.2038948,67.9192321 L52.4614706,64.9012648 C52.3233994,64.6621185 52.405337,64.3563233 52.6444833,64.2182521 L52.7494561,64.157646 C52.9886024,64.0195748 53.2943976,64.1015124 53.4324688,64.3406587 Z M21.2505439,64.157646 L21.3555167,64.2182521 C21.594663,64.3563233 21.6766006,64.6621185 21.5385294,64.9012648 L19.7961052,67.9192321 C19.658034,68.1583784 19.3522388,68.240316 19.1130924,68.1022448 L19.0081197,68.0416387 C18.7689734,67.9035675 18.6870358,67.5977723 18.825107,67.358626 L20.5675312,64.3406587 C20.7056024,64.1015124 21.0113976,64.0195748 21.2505439,64.157646 Z M54.8408482,63.4431803 L56.7388327,66.3658202 C56.8892306,66.5974127 56.8234094,66.9070771 56.5918169,67.057475 L56.4901599,67.1234918 C56.2585674,67.2738898 55.948903,67.2080685 55.7985051,66.9764761 L53.9005206,64.0538362 C53.7501227,63.8222437 53.8159439,63.5125793 54.0475363,63.3621814 L54.1491934,63.2961646 C54.3807859,63.1457666 54.6904503,63.2115878 54.8408482,63.4431803 Z M19.8508066,63.2961646 L19.9524637,63.3621814 C20.1840561,63.5125793 20.2498773,63.8222437 20.0994794,64.0538362 L18.2014949,66.9764761 C18.051097,67.2080685 17.7414326,67.2738898 17.5098401,67.1234918 L17.4081831,67.057475 C17.1765906,66.9070771 17.1107694,66.5974127 17.2611673,66.3658202 L19.1591518,63.4431803 C19.3095497,63.2115878 19.6192141,63.1457666 19.8508066,63.2961646 Z M56.200327,62.473223 L58.2486696,65.2925247 C58.410982,65.5159285 58.3614576,65.8286134 58.1380537,65.9909258 L58.0399911,66.0621725 C57.8165872,66.2244849 57.5039023,66.1749605 57.3415899,65.9515566 L55.2932474,63.132255 C55.130935,62.9088511 55.1804594,62.5961663 55.4038633,62.4338538 L55.5019259,62.3626071 C55.7253298,62.2002947 56.0380146,62.2498191 56.200327,62.473223 Z M18.4980741,62.3626071 L18.5961367,62.4338538 C18.8195406,62.5961663 18.869065,62.9088511 18.7067526,63.132255 L16.6584101,65.9515566 C16.4960977,66.1749605 16.1834128,66.2244849 15.9600089,66.0621725 L15.8619463,65.9909258 C15.6385424,65.8286134 15.589018,65.5159285 15.7513304,65.2925247 L17.799673,62.473223 C17.9619854,62.2498191 18.2746702,62.2002947 18.4980741,62.3626071 Z M57.5071791,61.4334454 L59.7002654,64.1416813 C59.8740474,64.3562842 59.8409555,64.6711324 59.6263526,64.8449145 L59.5321531,64.9211957 C59.3175501,65.0949778 59.0027019,65.0618859 58.8289199,64.8472829 L56.6358337,62.139047 C56.4620516,61.9244441 56.4951435,61.6095959 56.7097465,61.4358138 L56.803946,61.3595326 C57.0185489,61.1857506 57.3333971,61.2188424 57.5071791,61.4334454 Z M17.196054,61.3595326 L17.2902535,61.4358138 C17.5048565,61.6095959 17.5379484,61.9244441 17.3641663,62.139047 L15.1710801,64.8472829 C14.9972981,65.0618859 14.6824499,65.0949778 14.4678469,64.9211957 L14.3736474,64.8449145 C14.1590445,64.6711324 14.1259526,64.3562842 14.2997346,64.1416813 L16.4928209,61.4334454 C16.6666029,61.2188424 16.9814511,61.1857506 17.196054,61.3595326 Z M58.7578225,60.3266974 L61.0896413,62.9164445 C61.2744166,63.1216582 61.2578479,63.4378069 61.0526342,63.6225822 L60.962556,63.7036889 C60.7573422,63.8884642 60.4411936,63.8718956 60.2564183,63.6666818 L57.9245995,61.0769347 C57.7398242,60.8717209 57.7563928,60.5555723 57.9616066,60.370797 L58.0516848,60.2896902 C58.2568986,60.1049149 58.5730472,60.1214836 58.7578225,60.3266974 Z M15.9483152,60.2896902 L16.0383934,60.370797 C16.2436072,60.5555723 16.2601758,60.8717209 16.0754005,61.0769347 L13.7435817,63.6666818 C13.5588064,63.8718956 13.2426578,63.8884642 13.037444,63.7036889 L12.9473658,63.6225822 C12.7421521,63.4378069 12.7255834,63.1216582 12.9103587,62.9164445 L15.2421775,60.3266974 C15.4269528,60.1214836 15.7431014,60.1049149 15.9483152,60.2896902 Z M59.9488292,59.1560125 L62.4129892,61.6201725 C62.6082513,61.8154346 62.6082513,62.1320171 62.4129892,62.3272793 L62.3272793,62.4129892 C62.1320171,62.6082513 61.8154346,62.6082513 61.6201725,62.4129892 L59.1560125,59.9488292 C58.9607503,59.753567 58.9607503,59.4369845 59.1560125,59.2417224 L59.2417224,59.1560125 C59.4369845,58.9607503 59.753567,58.9607503 59.9488292,59.1560125 Z M14.7582776,59.1560125 L14.8439875,59.2417224 C15.0392497,59.4369845 15.0392497,59.753567 14.8439875,59.9488292 L12.3798275,62.4129892 C12.1845654,62.6082513 11.8679829,62.6082513 11.6727207,62.4129892 L11.5870108,62.3272793 C11.3917487,62.1320171 11.3917487,61.8154346 11.5870108,61.6201725 L14.0511708,59.1560125 C14.246433,58.9607503 14.5630155,58.9607503 14.7582776,59.1560125 Z M61.0769347,57.9245995 L63.6666818,60.2564183 C63.8718956,60.4411936 63.8884642,60.7573422 63.7036889,60.962556 L63.6225822,61.0526342 C63.4378069,61.2578479 63.1216582,61.2744166 62.9164445,61.0896413 L60.3266974,58.7578225 C60.1214836,58.5730472 60.1049149,58.2568986 60.2896902,58.0516848 L60.370797,57.9616066 C60.5555723,57.7563928 60.8717209,57.7398242 61.0769347,57.9245995 Z M13.629203,57.9616066 L13.7103098,58.0516848 C13.8950851,58.2568986 13.8785164,58.5730472 13.6733026,58.7578225 L11.0835555,61.0896413 C10.8783418,61.2744166 10.5621931,61.2578479 10.3774178,61.0526342 L10.2963111,60.962556 C10.1115358,60.7573422 10.1281044,60.4411936 10.3333182,60.2564183 L12.9230653,57.9245995 C13.1282791,57.7398242 13.4444277,57.7563928 13.629203,57.9616066 Z M62.139047,56.6358337 L64.8472829,58.8289199 C65.0618859,59.0027019 65.0949778,59.3175501 64.9211957,59.5321531 L64.8449145,59.6263526 C64.6711324,59.8409555 64.3562842,59.8740474 64.1416813,59.7002654 L61.4334454,57.5071791 C61.2188424,57.3333971 61.1857506,57.0185489 61.3595326,56.803946 L61.4358138,56.7097465 C61.6095959,56.4951435 61.9244441,56.4620516 62.139047,56.6358337 Z M12.5641862,56.7097465 L12.6404674,56.803946 C12.8142494,57.0185489 12.7811576,57.3333971 12.5665546,57.5071791 L9.8583187,59.7002654 C9.64371577,59.8740474 9.32886756,59.8409555 9.15508553,59.6263526 L9.07880427,59.5321531 C8.90502224,59.3175501 8.93811412,59.0027019 9.15271705,58.8289199 L11.860953,56.6358337 C12.0755559,56.4620516 12.3904041,56.4951435 12.5641862,56.7097465 Z M63.132255,55.2932474 L65.9515566,57.3415899 C66.1749605,57.5039023 66.2244849,57.8165872 66.0621725,58.0399911 L65.9909258,58.1380537 C65.8286134,58.3614576 65.5159285,58.410982 65.2925247,58.2486696 L62.473223,56.200327 C62.2498191,56.0380146 62.2002947,55.7253298 62.3626071,55.5019259 L62.4338538,55.4038633 C62.5961663,55.1804594 62.9088511,55.130935 63.132255,55.2932474 Z M11.5661462,55.4038633 L11.6373929,55.5019259 C11.7997053,55.7253298 11.7501809,56.0380146 11.526777,56.200327 L8.70747534,58.2486696 C8.48407147,58.410982 8.17138663,58.3614576 8.00907422,58.1380537 L7.93782752,58.0399911 C7.7755151,57.8165872 7.82503952,57.5039023 8.04844339,57.3415899 L10.867745,55.2932474 C11.0911489,55.130935 11.4038337,55.1804594 11.5661462,55.4038633 Z M64.0538362,53.9005206 L66.9764761,55.7985051 C67.2080685,55.948903 67.2738898,56.2585674 67.1234918,56.4901599 L67.057475,56.5918169 C66.9070771,56.8234094 66.5974127,56.8892306 66.3658202,56.7388327 L63.4431803,54.8408482 C63.2115878,54.6904503 63.1457666,54.3807859 63.2961646,54.1491934 L63.3621814,54.0475363 C63.5125793,53.8159439 63.8222437,53.7501227 64.0538362,53.9005206 Z M10.6378186,54.0475363 L10.7038354,54.1491934 C10.8542334,54.3807859 10.7884122,54.6904503 10.5568197,54.8408482 L7.63417982,56.7388327 C7.40258734,56.8892306 7.09292294,56.8234094 6.94252502,56.5918169 L6.87650817,56.4901599 C6.72611025,56.2585674 6.79193145,55.948903 7.02352393,55.7985051 L9.94616379,53.9005206 C10.1777563,53.7501227 10.4874207,53.8159439 10.6378186,54.0475363 Z M64.9012648,52.4614706 L67.9192321,54.2038948 C68.1583784,54.341966 68.240316,54.6477612 68.1022448,54.8869076 L68.0416387,54.9918803 C67.9035675,55.2310266 67.5977723,55.3129642 67.358626,55.174893 L64.3406587,53.4324688 C64.1015124,53.2943976 64.0195748,52.9886024 64.157646,52.7494561 L64.2182521,52.6444833 C64.3563233,52.405337 64.6621185,52.3233994 64.9012648,52.4614706 Z M9.78174793,52.6444833 L9.84235399,52.7494561 C9.98042518,52.9886024 9.8984876,53.2943976 9.65934129,53.4324688 L6.64137397,55.174893 C6.40222766,55.3129642 6.09643246,55.2310266 5.95836127,54.9918803 L5.89775521,54.8869076 C5.75968402,54.6477612 5.8416216,54.341966 6.08076791,54.2038948 L9.09873523,52.4614706 C9.33788154,52.3233994 9.64367674,52.405337 9.78174793,52.6444833 Z M65.6722179,50.9800418 L68.7772406,52.5621299 C69.0232853,52.6874959 69.1211147,52.9885838 68.9957487,53.2346284 L68.9407195,53.3426292 C68.8153535,53.5886739 68.5142656,53.6865033 68.268221,53.5611372 L65.1631983,51.9790491 C64.9171536,51.8536831 64.8193242,51.5525953 64.9446902,51.3065506 L64.9997194,51.1985498 C65.1250854,50.9525052 65.4261733,50.8546758 65.6722179,50.9800418 Z M9.0002806,51.1985498 L9.05530976,51.3065506 C9.18067577,51.5525953 9.0828464,51.8536831 8.83680174,51.9790491 L5.73177901,53.5611372 C5.48573435,53.6865033 5.18464651,53.5886739 5.0592805,53.3426292 L5.00425134,53.2346284 C4.87888533,52.9885838 4.9767147,52.6874959 5.22275936,52.5621299 L8.32778209,50.9800418 C8.57382675,50.8546758 8.87491459,50.9525052 9.0002806,51.1985498 Z M66.3645825,49.4602947 L69.54815,50.8777103 C69.8004186,50.9900275 69.9138716,51.2855827 69.8015544,51.5378513 L69.752253,51.6485841 C69.6399358,51.9008527 69.3443805,52.0143058 69.0921119,51.9019885 L65.9085444,50.484573 C65.6562758,50.3722557 65.5428228,50.0767005 65.65514,49.8244319 L65.7044414,49.7136991 C65.8167587,49.4614305 66.1123139,49.3479775 66.3645825,49.4602947 Z M8.29555856,49.7136991 L8.34485997,49.8244319 C8.4571772,50.0767005 8.34372418,50.3722557 8.09145557,50.484573 L4.90788806,51.9019885 C4.65561945,52.0143058 4.36006424,51.9008527 4.24774701,51.6485841 L4.1984456,51.5378513 C4.08612838,51.2855827 4.1995814,50.9900275 4.45185001,50.8777103 L7.63541751,49.4602947 C7.88768613,49.3479775 8.18324134,49.4614305 8.29555856,49.7136991 Z M66.9764608,47.9063948 L70.2298471,49.1552528 C70.4876482,49.2542134 70.6164139,49.5434259 70.5174534,49.801227 L70.4740148,49.9143883 C70.3750542,50.1721894 70.0858417,50.3009551 69.8280406,50.2019945 L66.5746543,48.9531365 C66.3168532,48.8541759 66.1880875,48.5649634 66.2870481,48.3071623 L66.3304866,48.1940011 C66.4294472,47.9361999 66.7186597,47.8074342 66.9764608,47.9063948 Z M7.6695134,48.1940011 L7.71295194,48.3071623 C7.81191252,48.5649634 7.68314682,48.8541759 7.4253457,48.9531365 L4.17195937,50.2019945 C3.91415825,50.3009551 3.62494576,50.1721894 3.52598518,49.9143883 L3.48254664,49.801227 C3.38358606,49.5434259 3.51235176,49.2542134 3.77015288,49.1552528 L7.02353921,47.9063948 C7.28134033,47.8074342 7.57055282,47.9361999 7.6695134,48.1940011 Z M67.5061757,46.3226012 L70.8204636,47.3994786 C71.0830906,47.4848113 71.226816,47.7668884 71.1414833,48.0295154 L71.1040267,48.144795 C71.018694,48.407422 70.736617,48.5511474 70.47399,48.4658147 L67.1597021,47.3889373 C66.8970751,47.3036047 66.7533496,47.0215276 66.8386823,46.7589006 L66.8761389,46.643621 C66.9614716,46.380994 67.2435487,46.2372686 67.5061757,46.3226012 Z M7.12386106,46.643621 L7.16131767,46.7589006 C7.24665036,47.0215276 7.10292491,47.3036047 6.84029791,47.3889373 L3.52601005,48.4658147 C3.26338304,48.5511474 2.98130598,48.407422 2.89597329,48.144795 L2.85851669,48.0295154 C2.773184,47.7668884 2.91690944,47.4848113 3.17953645,47.3994786 L6.49382431,46.3226012 C6.75645131,46.2372686 7.03852838,46.380994 7.12386106,46.643621 Z M67.9522753,44.7132551 L71.3183804,45.6152002 C71.5851135,45.6866711 71.7434047,45.9608396 71.6719338,46.2275727 L71.6405618,46.3446546 C71.5690909,46.6113876 71.2949224,46.7696789 71.0281894,46.698208 L67.6620842,45.7962628 C67.3953512,45.7247919 67.2370599,45.4506234 67.3085308,45.1838904 L67.3399029,45.0668085 C67.4113738,44.8000754 67.6855422,44.6417842 67.9522753,44.7132551 Z M6.66009715,45.0668085 L6.69146915,45.1838904 C6.76294006,45.4506234 6.60464881,45.7247919 6.33791576,45.7962628 L2.97181061,46.698208 C2.70507756,46.7696789 2.43090908,46.6113876 2.35943817,46.3446546 L2.32806617,46.2275727 C2.25659526,45.9608396 2.41488651,45.6866711 2.68161956,45.6152002 L6.04772471,44.7132551 C6.31445776,44.6417842 6.58862624,44.8000754 6.66009715,45.0668085 Z M68.3135369,43.0827674 L71.722233,43.8073081 C71.992341,43.8647214 72.1647642,44.1302298 72.107351,44.4003378 L72.0821496,44.5189011 C72.0247363,44.7890091 71.7592279,44.9614323 71.4891199,44.9040191 L68.0804237,44.1794783 C67.8103157,44.1220651 67.6378926,43.8565567 67.6953058,43.5864487 L67.7205072,43.4678853 C67.7779204,43.1977773 68.0434288,43.0253542 68.3135369,43.0827674 Z M6.2794928,43.4678853 L6.30469421,43.5864487 C6.36210744,43.8565567 6.18968426,44.1220651 5.91957626,44.1794783 L2.51088007,44.9040191 C2.24077207,44.9614323 1.97526366,44.7890091 1.91785043,44.5189011 L1.89264901,44.4003378 C1.83523578,44.1302298 2.00765896,43.8647214 2.27776697,43.8073081 L5.68646315,43.0827674 C5.95657115,43.0253542 6.22207957,43.1977773 6.2794928,43.4678853 Z M68.5889702,41.4356073 L72.0309144,41.9807577 C72.303657,42.0239559 72.4897395,42.2800765 72.4465413,42.5528191 L72.4275796,42.6725389 C72.3843814,42.9452815 72.1282608,43.131364 71.8555182,43.0881658 L68.413574,42.5430154 C68.1408314,42.4998172 67.9547488,42.2436966 67.997947,41.970954 L68.0169088,41.8512342 C68.060107,41.5784916 68.3162276,41.3924091 68.5889702,41.4356073 Z M5.98309122,41.8512342 L6.00205297,41.970954 C6.04525116,42.2436966 5.85916864,42.4998172 5.58642603,42.5430154 L2.14448182,43.0881658 C1.87173921,43.131364 1.6156186,42.9452815 1.57242041,42.6725389 L1.55345866,42.5528191 C1.51026048,42.2800765 1.69634299,42.0239559 1.9690856,41.9807577 L5.41102982,41.4356073 C5.68377242,41.3924091 5.93989303,41.5784916 5.98309122,41.8512342 Z M68.7778203,39.7762895 L72.2435785,40.1405553 C72.5182081,40.1694201 72.7174399,40.4154509 72.6885752,40.6900805 L72.6759051,40.8106286 C72.6470403,41.0852583 72.4010095,41.2844901 72.1263799,41.2556253 L68.6606218,40.8913595 C68.3859921,40.8624947 68.1867603,40.6164639 68.2156251,40.3418343 L68.2282952,40.2212862 C68.2571599,39.9466565 68.5031907,39.7474247 68.7778203,39.7762895 Z M5.77170483,40.2212862 L5.78437495,40.3418343 C5.81323969,40.6164639 5.61400787,40.8624947 5.33937823,40.8913595 L1.87362011,41.2556253 C1.59899047,41.2844901 1.35295967,41.0852583 1.32409493,40.8106286 L1.31142482,40.6900805 C1.28256008,40.4154509 1.48179189,40.1694201 1.75642153,40.1405553 L5.22217965,39.7762895 C5.49680929,39.7474247 5.74284009,39.9466565 5.77170483,40.2212862 Z M68.8795697,38.109362 L72.3596423,38.2917449 C72.6354063,38.3061971 72.8472413,38.5414637 72.8327891,38.8172277 L72.8264454,38.9382737 C72.8119932,39.2140376 72.5767266,39.4258726 72.3009626,39.4114205 L68.82089,39.2290376 C68.5451261,39.2145854 68.333291,38.9793188 68.3477432,38.7035548 L68.354087,38.5825088 C68.3685391,38.3067449 68.6038058,38.0949099 68.8795697,38.109362 Z M5.12043029,38.109362 C5.39619422,38.0949099 5.63146086,38.3067449 5.64591303,38.5825088 L5.65225679,38.7035548 C5.66670896,38.9793188 5.45487393,39.2145854 5.17911,39.2290376 L1.69903737,39.4114205 C1.42327344,39.4258726 1.1880068,39.2140376 1.17355463,38.9382737 L1.16721088,38.8172277 C1.1527587,38.5414637 1.36459373,38.3061971 1.64035767,38.2917449 L5.12043029,38.109362 Z M72.3787879,36.4393939 C72.6549303,36.4393939 72.8787879,36.6632516 72.8787879,36.9393939 L72.8787879,37.0606061 C72.8787879,37.3367484 72.6549303,37.5606061 72.3787879,37.5606061 L68.8939394,37.5606061 C68.617797,37.5606061 68.3939394,37.3367484 68.3939394,37.0606061 L68.3939394,36.9393939 C68.3939394,36.6632516 68.617797,36.4393939 68.8939394,36.4393939 L72.3787879,36.4393939 Z M5.10606061,36.4393939 C5.38220298,36.4393939 5.60606061,36.6632516 5.60606061,36.9393939 L5.60606061,37.0606061 C5.60606061,37.3367484 5.38220298,37.5606061 5.10606061,37.5606061 L1.62121212,37.5606061 C1.34506975,37.5606061 1.12121212,37.3367484 1.12121212,37.0606061 L1.12121212,36.9393939 C1.12121212,36.6632516 1.34506975,36.4393939 1.62121212,36.4393939 L5.10606061,36.4393939 Z M72.3009626,34.5885795 C72.5767266,34.5741274 72.8119932,34.7859624 72.8264454,35.0617263 L72.8327891,35.1827723 C72.8472413,35.4585363 72.6354063,35.6938029 72.3596423,35.7082551 L68.8795697,35.890638 C68.6038058,35.9050901 68.3685391,35.6932551 68.354087,35.4174912 L68.3477432,35.2964452 C68.333291,35.0206812 68.5451261,34.7854146 68.82089,34.7709624 L72.3009626,34.5885795 Z M1.69903737,34.5885795 L5.17911,34.7709624 C5.45487393,34.7854146 5.66670896,35.0206812 5.65225679,35.2964452 L5.64591303,35.4174912 C5.63146086,35.6932551 5.39619422,35.9050901 5.12043029,35.890638 L1.64035767,35.7082551 C1.36459373,35.6938029 1.1527587,35.4585363 1.16721088,35.1827723 L1.17355463,35.0617263 C1.1880068,34.7859624 1.42327344,34.5741274 1.69903737,34.5885795 Z M72.6759051,33.1893714 L72.6885752,33.3099195 C72.7174399,33.5845491 72.5182081,33.8305799 72.2435785,33.8594447 L68.7778203,34.2237105 C68.5031907,34.2525753 68.2571599,34.0533435 68.2282952,33.7787138 L68.2156251,33.6581657 C68.1867603,33.3835361 68.3859921,33.1375053 68.6606218,33.1086405 L72.1263799,32.7443747 C72.4010095,32.7155099 72.6470403,32.9147417 72.6759051,33.1893714 Z M1.87362011,32.7443747 L5.33937823,33.1086405 C5.61400787,33.1375053 5.81323969,33.3835361 5.78437495,33.6581657 L5.77170483,33.7787138 C5.74284009,34.0533435 5.49680929,34.2525753 5.22217965,34.2237105 L1.75642153,33.8594447 C1.48179189,33.8305799 1.28256008,33.5845491 1.31142482,33.3099195 L1.32409493,33.1893714 C1.35295967,32.9147417 1.59899047,32.7155099 1.87362011,32.7443747 Z M72.4275796,31.3274611 L72.4465413,31.4471809 C72.4897395,31.7199235 72.303657,31.9760441 72.0309144,32.0192423 L68.5889702,32.5643927 C68.3162276,32.6075909 68.060107,32.4215084 68.0169088,32.1487658 L67.997947,32.029046 C67.9547488,31.7563034 68.1408314,31.5001828 68.413574,31.4569846 L71.8555182,30.9118342 C72.1282608,30.868636 72.3843814,31.0547185 72.4275796,31.3274611 Z M2.14448182,30.9118342 L5.58642603,31.4569846 C5.85916864,31.5001828 6.04525116,31.7563034 6.00205297,32.029046 L5.98309122,32.1487658 C5.93989303,32.4215084 5.68377242,32.6075909 5.41102982,32.5643927 L1.9690856,32.0192423 C1.69634299,31.9760441 1.51026048,31.7199235 1.55345866,31.4471809 L1.57242041,31.3274611 C1.6156186,31.0547185 1.87173921,30.868636 2.14448182,30.9118342 Z M72.0821496,29.4810989 L72.107351,29.5996622 C72.1647642,29.8697702 71.992341,30.1352786 71.722233,30.1926919 L68.3135369,30.9172326 C68.0434288,30.9746458 67.7779204,30.8022227 67.7205072,30.5321147 L67.6953058,30.4135513 C67.6378926,30.1434433 67.8103157,29.8779349 68.0804237,29.8205217 L71.4891199,29.0959809 C71.7592279,29.0385677 72.0247363,29.2109909 72.0821496,29.4810989 Z M2.51088007,29.0959809 L5.91957626,29.8205217 C6.18968426,29.8779349 6.36210744,30.1434433 6.30469421,30.4135513 L6.2794928,30.5321147 C6.22207957,30.8022227 5.95657115,30.9746458 5.68646315,30.9172326 L2.27776697,30.1926919 C2.00765896,30.1352786 1.83523578,29.8697702 1.89264901,29.5996622 L1.91785043,29.4810989 C1.97526366,29.2109909 2.24077207,29.0385677 2.51088007,29.0959809 Z M71.6405618,27.6553454 L71.6719338,27.7724273 C71.7434047,28.0391604 71.5851135,28.3133289 71.3183804,28.3847998 L67.9522753,29.2867449 C67.6855422,29.3582158 67.4113738,29.1999246 67.3399029,28.9331915 L67.3085308,28.8161096 C67.2370599,28.5493766 67.3953512,28.2752081 67.6620842,28.2037372 L71.0281894,27.301792 C71.2949224,27.2303211 71.5690909,27.3886124 71.6405618,27.6553454 Z M2.97181061,27.301792 L6.33791576,28.2037372 C6.60464881,28.2752081 6.76294006,28.5493766 6.69146915,28.8161096 L6.66009715,28.9331915 C6.58862624,29.1999246 6.31445776,29.3582158 6.04772471,29.2867449 L2.68161956,28.3847998 C2.41488651,28.3133289 2.25659526,28.0391604 2.32806617,27.7724273 L2.35943817,27.6553454 C2.43090908,27.3886124 2.70507756,27.2303211 2.97181061,27.301792 Z M71.1040267,25.855205 L71.1414833,25.9704846 C71.226816,26.2331116 71.0830906,26.5151887 70.8204636,26.6005214 L67.5061757,27.6773988 C67.2435487,27.7627314 66.9614716,27.619006 66.8761389,27.356379 L66.8386823,27.2410994 C66.7533496,26.9784724 66.8970751,26.6963953 67.1597021,26.6110627 L70.47399,25.5341853 C70.736617,25.4488526 71.018694,25.592578 71.1040267,25.855205 Z M3.52601005,25.5341853 L6.84029791,26.6110627 C7.10292491,26.6963953 7.24665036,26.9784724 7.16131767,27.2410994 L7.12386106,27.356379 C7.03852838,27.619006 6.75645131,27.7627314 6.49382431,27.6773988 L3.17953645,26.6005214 C2.91690944,26.5151887 2.773184,26.2331116 2.85851669,25.9704846 L2.89597329,25.855205 C2.98130598,25.592578 3.26338304,25.4488526 3.52601005,25.5341853 Z M70.4740148,24.0856117 L70.5174534,24.198773 C70.6164139,24.4565741 70.4876482,24.7457866 70.2298471,24.8447472 L66.9764608,26.0936052 C66.7186597,26.1925658 66.4294472,26.0638001 66.3304866,25.8059989 L66.2870481,25.6928377 C66.1880875,25.4350366 66.3168532,25.1458241 66.5746543,25.0468635 L69.8280406,23.7980055 C70.0858417,23.6990449 70.3750542,23.8278106 70.4740148,24.0856117 Z M4.17195937,23.7980055 L7.4253457,25.0468635 C7.68314682,25.1458241 7.81191252,25.4350366 7.71295194,25.6928377 L7.6695134,25.8059989 C7.57055282,26.0638001 7.28134033,26.1925658 7.02353921,26.0936052 L3.77015288,24.8447472 C3.51235176,24.7457866 3.38358606,24.4565741 3.48254664,24.198773 L3.52598518,24.0856117 C3.62494576,23.8278106 3.91415825,23.6990449 4.17195937,23.7980055 Z M69.752253,22.3514159 L69.8015544,22.4621487 C69.9138716,22.7144173 69.8004186,23.0099725 69.54815,23.1222897 L66.3645825,24.5397053 C66.1123139,24.6520225 65.8167587,24.5385695 65.7044414,24.2863009 L65.65514,24.1755681 C65.5428228,23.9232995 65.6562758,23.6277443 65.9085444,23.515427 L69.0921119,22.0980115 C69.3443805,21.9856942 69.6399358,22.0991473 69.752253,22.3514159 Z M4.90788806,22.0980115 L8.09145557,23.515427 C8.34372418,23.6277443 8.4571772,23.9232995 8.34485997,24.1755681 L8.29555856,24.2863009 C8.18324134,24.5385695 7.88768613,24.6520225 7.63541751,24.5397053 L4.45185001,23.1222897 C4.1995814,23.0099725 4.08612838,22.7144173 4.1984456,22.4621487 L4.24774701,22.3514159 C4.36006424,22.0991473 4.65561945,21.9856942 4.90788806,22.0980115 Z M68.9407195,20.6573708 L68.9957487,20.7653716 C69.1211147,21.0114162 69.0232853,21.3125041 68.7772406,21.4378701 L65.6722179,23.0199582 C65.4261733,23.1453242 65.1250854,23.0474948 64.9997194,22.8014502 L64.9446902,22.6934494 C64.8193242,22.4474047 64.9171536,22.1463169 65.1631983,22.0209509 L68.268221,20.4388628 C68.5142656,20.3134967 68.8153535,20.4113261 68.9407195,20.6573708 Z M5.73177901,20.4388628 L8.83680174,22.0209509 C9.0828464,22.1463169 9.18067577,22.4474047 9.05530976,22.6934494 L9.0002806,22.8014502 C8.87491459,23.0474948 8.57382675,23.1453242 8.32778209,23.0199582 L5.22275936,21.4378701 C4.9767147,21.3125041 4.87888533,21.0114162 5.00425134,20.7653716 L5.0592805,20.6573708 C5.18464651,20.4113261 5.48573435,20.3134967 5.73177901,20.4388628 Z M68.0416387,19.0081197 L68.1022448,19.1130924 C68.240316,19.3522388 68.1583784,19.658034 67.9192321,19.7961052 L64.9012648,21.5385294 C64.6621185,21.6766006 64.3563233,21.594663 64.2182521,21.3555167 L64.157646,21.2505439 C64.0195748,21.0113976 64.1015124,20.7056024 64.3406587,20.5675312 L67.358626,18.825107 C67.5977723,18.6870358 67.9035675,18.7689734 68.0416387,19.0081197 Z M6.64137397,18.825107 L9.65934129,20.5675312 C9.8984876,20.7056024 9.98042518,21.0113976 9.84235399,21.2505439 L9.78174793,21.3555167 C9.64367674,21.594663 9.33788154,21.6766006 9.09873523,21.5385294 L6.08076791,19.7961052 C5.8416216,19.658034 5.75968402,19.3522388 5.89775521,19.1130924 L5.95836127,19.0081197 C6.09643246,18.7689734 6.40222766,18.6870358 6.64137397,18.825107 Z M67.057475,17.4081831 L67.1234918,17.5098401 C67.2738898,17.7414326 67.2080685,18.051097 66.9764761,18.2014949 L64.0538362,20.0994794 C63.8222437,20.2498773 63.5125793,20.1840561 63.3621814,19.9524637 L63.2961646,19.8508066 C63.1457666,19.6192141 63.2115878,19.3095497 63.4431803,19.1591518 L66.3658202,17.2611673 C66.5974127,17.1107694 66.9070771,17.1765906 67.057475,17.4081831 Z M7.63417982,17.2611673 L10.5568197,19.1591518 C10.7884122,19.3095497 10.8542334,19.6192141 10.7038354,19.8508066 L10.6378186,19.9524637 C10.4874207,20.1840561 10.1777563,20.2498773 9.94616379,20.0994794 L7.02352393,18.2014949 C6.79193145,18.051097 6.72611025,17.7414326 6.87650817,17.5098401 L6.94252502,17.4081831 C7.09292294,17.1765906 7.40258734,17.1107694 7.63417982,17.2611673 Z M65.9909258,15.8619463 L66.0621725,15.9600089 C66.2244849,16.1834128 66.1749605,16.4960977 65.9515566,16.6584101 L63.132255,18.7067526 C62.9088511,18.869065 62.5961663,18.8195406 62.4338538,18.5961367 L62.3626071,18.4980741 C62.2002947,18.2746702 62.2498191,17.9619854 62.473223,17.799673 L65.2925247,15.7513304 C65.5159285,15.589018 65.8286134,15.6385424 65.9909258,15.8619463 Z M8.70747534,15.7513304 L11.526777,17.799673 C11.7501809,17.9619854 11.7997053,18.2746702 11.6373929,18.4980741 L11.5661462,18.5961367 C11.4038337,18.8195406 11.0911489,18.869065 10.867745,18.7067526 L8.04844339,16.6584101 C7.82503952,16.4960977 7.7755151,16.1834128 7.93782752,15.9600089 L8.00907422,15.8619463 C8.17138663,15.6385424 8.48407147,15.589018 8.70747534,15.7513304 Z M64.8449145,14.3736474 L64.9211957,14.4678469 C65.0949778,14.6824499 65.0618859,14.9972981 64.8472829,15.1710801 L62.139047,17.3641663 C61.9244441,17.5379484 61.6095959,17.5048565 61.4358138,17.2902535 L61.3595326,17.196054 C61.1857506,16.9814511 61.2188424,16.6666029 61.4334454,16.4928209 L64.1416813,14.2997346 C64.3562842,14.1259526 64.6711324,14.1590445 64.8449145,14.3736474 Z M9.8583187,14.2997346 L12.5665546,16.4928209 C12.7811576,16.6666029 12.8142494,16.9814511 12.6404674,17.196054 L12.5641862,17.2902535 C12.3904041,17.5048565 12.0755559,17.5379484 11.860953,17.3641663 L9.15271705,15.1710801 C8.93811412,14.9972981 8.90502224,14.6824499 9.07880427,14.4678469 L9.15508553,14.3736474 C9.32886756,14.1590445 9.64371577,14.1259526 9.8583187,14.2997346 Z M63.6225822,12.9473658 L63.7036889,13.037444 C63.8884642,13.2426578 63.8718956,13.5588064 63.6666818,13.7435817 L61.0769347,16.0754005 C60.8717209,16.2601758 60.5555723,16.2436072 60.370797,16.0383934 L60.2896902,15.9483152 C60.1049149,15.7431014 60.1214836,15.4269528 60.3266974,15.2421775 L62.9164445,12.9103587 C63.1216582,12.7255834 63.4378069,12.7421521 63.6225822,12.9473658 Z M11.0835555,12.9103587 L13.6733026,15.2421775 C13.8785164,15.4269528 13.8950851,15.7431014 13.7103098,15.9483152 L13.629203,16.0383934 C13.4444277,16.2436072 13.1282791,16.2601758 12.9230653,16.0754005 L10.3333182,13.7435817 C10.1281044,13.5588064 10.1115358,13.2426578 10.2963111,13.037444 L10.3774178,12.9473658 C10.5621931,12.7421521 10.8783418,12.7255834 11.0835555,12.9103587 Z M62.3272793,11.5870108 L62.4129892,11.6727207 C62.6082513,11.8679829 62.6082513,12.1845654 62.4129892,12.3798275 L59.9488292,14.8439875 C59.753567,15.0392497 59.4369845,15.0392497 59.2417224,14.8439875 L59.1560125,14.7582776 C58.9607503,14.5630155 58.9607503,14.246433 59.1560125,14.0511708 L61.6201725,11.5870108 C61.8154346,11.3917487 62.1320171,11.3917487 62.3272793,11.5870108 Z M12.3798275,11.5870108 L14.8439875,14.0511708 C15.0392497,14.246433 15.0392497,14.5630155 14.8439875,14.7582776 L14.7582776,14.8439875 C14.5630155,15.0392497 14.246433,15.0392497 14.0511708,14.8439875 L11.5870108,12.3798275 C11.3917487,12.1845654 11.3917487,11.8679829 11.5870108,11.6727207 L11.6727207,11.5870108 C11.8679829,11.3917487 12.1845654,11.3917487 12.3798275,11.5870108 Z M60.962556,10.2963111 L61.0526342,10.3774178 C61.2578479,10.5621931 61.2744166,10.8783418 61.0896413,11.0835555 L58.7578225,13.6733026 C58.5730472,13.8785164 58.2568986,13.8950851 58.0516848,13.7103098 L57.9616066,13.629203 C57.7563928,13.4444277 57.7398242,13.1282791 57.9245995,12.9230653 L60.2564183,10.3333182 C60.4411936,10.1281044 60.7573422,10.1115358 60.962556,10.2963111 Z M13.7435817,10.3333182 L16.0754005,12.9230653 C16.2601758,13.1282791 16.2436072,13.4444277 16.0383934,13.629203 L15.9483152,13.7103098 C15.7431014,13.8950851 15.4269528,13.8785164 15.2421775,13.6733026 L12.9103587,11.0835555 C12.7255834,10.8783418 12.7421521,10.5621931 12.9473658,10.3774178 L13.037444,10.2963111 C13.2426578,10.1115358 13.5588064,10.1281044 13.7435817,10.3333182 Z M59.5321531,9.07880427 L59.6263526,9.15508553 C59.8409555,9.32886756 59.8740474,9.64371577 59.7002654,9.8583187 L57.5071791,12.5665546 C57.3333971,12.7811576 57.0185489,12.8142494 56.803946,12.6404674 L56.7097465,12.5641862 C56.4951435,12.3904041 56.4620516,12.0755559 56.6358337,11.860953 L58.8289199,9.15271705 C59.0027019,8.93811412 59.3175501,8.90502224 59.5321531,9.07880427 Z M15.1710801,9.15271705 L17.3641663,11.860953 C17.5379484,12.0755559 17.5048565,12.3904041 17.2902535,12.5641862 L17.196054,12.6404674 C16.9814511,12.8142494 16.6666029,12.7811576 16.4928209,12.5665546 L14.2997346,9.8583187 C14.1259526,9.64371577 14.1590445,9.32886756 14.3736474,9.15508553 L14.4678469,9.07880427 C14.6824499,8.90502224 14.9972981,8.93811412 15.1710801,9.15271705 Z M58.0399911,7.93782752 L58.1380537,8.00907422 C58.3614576,8.17138663 58.410982,8.48407147 58.2486696,8.70747534 L56.200327,11.526777 C56.0380146,11.7501809 55.7253298,11.7997053 55.5019259,11.6373929 L55.4038633,11.5661462 C55.1804594,11.4038337 55.130935,11.0911489 55.2932474,10.867745 L57.3415899,8.04844339 C57.5039023,7.82503952 57.8165872,7.7755151 58.0399911,7.93782752 Z M16.6584101,8.04844339 L18.7067526,10.867745 C18.869065,11.0911489 18.8195406,11.4038337 18.5961367,11.5661462 L18.4980741,11.6373929 C18.2746702,11.7997053 17.9619854,11.7501809 17.799673,11.526777 L15.7513304,8.70747534 C15.589018,8.48407147 15.6385424,8.17138663 15.8619463,8.00907422 L15.9600089,7.93782752 C16.1834128,7.7755151 16.4960977,7.82503952 16.6584101,8.04844339 Z M56.4901599,6.87650817 L56.5918169,6.94252502 C56.8234094,7.09292294 56.8892306,7.40258734 56.7388327,7.63417982 L54.8408482,10.5568197 C54.6904503,10.7884122 54.3807859,10.8542334 54.1491934,10.7038354 L54.0475363,10.6378186 C53.8159439,10.4874207 53.7501227,10.1777563 53.9005206,9.94616379 L55.7985051,7.02352393 C55.948903,6.79193145 56.2585674,6.72611025 56.4901599,6.87650817 Z M18.2014949,7.02352393 L20.0994794,9.94616379 C20.2498773,10.1777563 20.1840561,10.4874207 19.9524637,10.6378186 L19.8508066,10.7038354 C19.6192141,10.8542334 19.3095497,10.7884122 19.1591518,10.5568197 L17.2611673,7.63417982 C17.1107694,7.40258734 17.1765906,7.09292294 17.4081831,6.94252502 L17.5098401,6.87650817 C17.7414326,6.72611025 18.051097,6.79193145 18.2014949,7.02352393 Z M54.8869076,5.89775521 L54.9918803,5.95836127 C55.2310266,6.09643246 55.3129642,6.40222766 55.174893,6.64137397 L53.4324688,9.65934129 C53.2943976,9.8984876 52.9886024,9.98042518 52.7494561,9.84235399 L52.6444833,9.78174793 C52.405337,9.64367674 52.3233994,9.33788154 52.4614706,9.09873523 L54.2038948,6.08076791 C54.341966,5.8416216 54.6477612,5.75968402 54.8869076,5.89775521 Z M19.7961052,6.08076791 L21.5385294,9.09873523 C21.6766006,9.33788154 21.594663,9.64367674 21.3555167,9.78174793 L21.2505439,9.84235399 C21.0113976,9.98042518 20.7056024,9.8984876 20.5675312,9.65934129 L18.825107,6.64137397 C18.6870358,6.40222766 18.7689734,6.09643246 19.0081197,5.95836127 L19.1130924,5.89775521 C19.3522388,5.75968402 19.658034,5.8416216 19.7961052,6.08076791 Z M53.2346284,5.00425134 L53.3426292,5.0592805 C53.5886739,5.18464651 53.6865033,5.48573435 53.5611372,5.73177901 L51.9790491,8.83680174 C51.8536831,9.0828464 51.5525953,9.18067577 51.3065506,9.05530976 L51.1985498,9.0002806 C50.9525052,8.87491459 50.8546758,8.57382675 50.9800418,8.32778209 L52.5621299,5.22275936 C52.6874959,4.9767147 52.9885838,4.87888533 53.2346284,5.00425134 Z M21.4378701,5.22275936 L23.0199582,8.32778209 C23.1453242,8.57382675 23.0474948,8.87491459 22.8014502,9.0002806 L22.6934494,9.05530976 C22.4474047,9.18067577 22.1463169,9.0828464 22.0209509,8.83680174 L20.4388628,5.73177901 C20.3134967,5.48573435 20.4113261,5.18464651 20.6573708,5.0592805 L20.7653716,5.00425134 C21.0114162,4.87888533 21.3125041,4.9767147 21.4378701,5.22275936 Z M51.5378513,4.1984456 L51.6485841,4.24774701 C51.9008527,4.36006424 52.0143058,4.65561945 51.9019885,4.90788806 L50.484573,8.09145557 C50.3722557,8.34372418 50.0767005,8.4571772 49.8244319,8.34485997 L49.7136991,8.29555856 C49.4614305,8.18324134 49.3479775,7.88768613 49.4602947,7.63541751 L50.8777103,4.45185001 C50.9900275,4.1995814 51.2855827,4.08612838 51.5378513,4.1984456 Z M23.1222897,4.45185001 L24.5397053,7.63541751 C24.6520225,7.88768613 24.5385695,8.18324134 24.2863009,8.29555856 L24.1755681,8.34485997 C23.9232995,8.4571772 23.6277443,8.34372418 23.515427,8.09145557 L22.0980115,4.90788806 C21.9856942,4.65561945 22.0991473,4.36006424 22.3514159,4.24774701 L22.4621487,4.1984456 C22.7144173,4.08612838 23.0099725,4.1995814 23.1222897,4.45185001 Z M49.801227,3.48254664 L49.9143883,3.52598518 C50.1721894,3.62494576 50.3009551,3.91415825 50.2019945,4.17195937 L48.9531365,7.4253457 C48.8541759,7.68314682 48.5649634,7.81191252 48.3071623,7.71295194 L48.1940011,7.6695134 C47.9361999,7.57055282 47.8074342,7.28134033 47.9063948,7.02353921 L49.1552528,3.77015288 C49.2542134,3.51235176 49.5434259,3.38358606 49.801227,3.48254664 Z M24.8447472,3.77015288 L26.0936052,7.02353921 C26.1925658,7.28134033 26.0638001,7.57055282 25.8059989,7.6695134 L25.6928377,7.71295194 C25.4350366,7.81191252 25.1458241,7.68314682 25.0468635,7.4253457 L23.7980055,4.17195937 C23.6990449,3.91415825 23.8278106,3.62494576 24.0856117,3.52598518 L24.198773,3.48254664 C24.4565741,3.38358606 24.7457866,3.51235176 24.8447472,3.77015288 Z M48.0295154,2.85851669 L48.144795,2.89597329 C48.407422,2.98130598 48.5511474,3.26338304 48.4658147,3.52601005 L47.3889373,6.84029791 C47.3036047,7.10292491 47.0215276,7.24665036 46.7589006,7.16131767 L46.643621,7.12386106 C46.380994,7.03852838 46.2372686,6.75645131 46.3226012,6.49382431 L47.3994786,3.17953645 C47.4848113,2.91690944 47.7668884,2.773184 48.0295154,2.85851669 Z M26.6005214,3.17953645 L27.6773988,6.49382431 C27.7627314,6.75645131 27.619006,7.03852838 27.356379,7.12386106 L27.2410994,7.16131767 C26.9784724,7.24665036 26.6963953,7.10292491 26.6110627,6.84029791 L25.5341853,3.52601005 C25.4488526,3.26338304 25.592578,2.98130598 25.855205,2.89597329 L25.9704846,2.85851669 C26.2331116,2.773184 26.5151887,2.91690944 26.6005214,3.17953645 Z M46.2275727,2.32806617 L46.3446546,2.35943817 C46.6113876,2.43090908 46.7696789,2.70507756 46.698208,2.97181061 L45.7962628,6.33791576 C45.7247919,6.60464881 45.4506234,6.76294006 45.1838904,6.69146915 L45.0668085,6.66009715 C44.8000754,6.58862624 44.6417842,6.31445776 44.7132551,6.04772471 L45.6152002,2.68161956 C45.6866711,2.41488651 45.9608396,2.25659526 46.2275727,2.32806617 Z M28.3847998,2.68161956 L29.2867449,6.04772471 C29.3582158,6.31445776 29.1999246,6.58862624 28.9331915,6.66009715 L28.8161096,6.69146915 C28.5493766,6.76294006 28.2752081,6.60464881 28.2037372,6.33791576 L27.301792,2.97181061 C27.2303211,2.70507756 27.3886124,2.43090908 27.6553454,2.35943817 L27.7724273,2.32806617 C28.0391604,2.25659526 28.3133289,2.41488651 28.3847998,2.68161956 Z M44.4003378,1.89264901 L44.5189011,1.91785043 C44.7890091,1.97526366 44.9614323,2.24077207 44.9040191,2.51088007 L44.1794783,5.91957626 C44.1220651,6.18968426 43.8565567,6.36210744 43.5864487,6.30469421 L43.4678853,6.2794928 C43.1977773,6.22207957 43.0253542,5.95657115 43.0827674,5.68646315 L43.8073081,2.27776697 C43.8647214,2.00765896 44.1302298,1.83523578 44.4003378,1.89264901 Z M30.1926919,2.27776697 L30.9172326,5.68646315 C30.9746458,5.95657115 30.8022227,6.22207957 30.5321147,6.2794928 L30.4135513,6.30469421 C30.1434433,6.36210744 29.8779349,6.18968426 29.8205217,5.91957626 L29.0959809,2.51088007 C29.0385677,2.24077207 29.2109909,1.97526366 29.4810989,1.91785043 L29.5996622,1.89264901 C29.8697702,1.83523578 30.1352786,2.00765896 30.1926919,2.27776697 Z M42.5528191,1.55345866 L42.6725389,1.57242041 C42.9452815,1.6156186 43.131364,1.87173921 43.0881658,2.14448182 L42.5430154,5.58642603 C42.4998172,5.85916864 42.2436966,6.04525116 41.970954,6.00205297 L41.8512342,5.98309122 C41.5784916,5.93989303 41.3924091,5.68377242 41.4356073,5.41102982 L41.9807577,1.9690856 C42.0239559,1.69634299 42.2800765,1.51026048 42.5528191,1.55345866 Z M32.0192423,1.9690856 L32.5643927,5.41102982 C32.6075909,5.68377242 32.4215084,5.93989303 32.1487658,5.98309122 L32.029046,6.00205297 C31.7563034,6.04525116 31.5001828,5.85916864 31.4569846,5.58642603 L30.9118342,2.14448182 C30.868636,1.87173921 31.0547185,1.6156186 31.3274611,1.57242041 L31.4471809,1.55345866 C31.7199235,1.51026048 31.9760441,1.69634299 32.0192423,1.9690856 Z M40.6900805,1.31142482 L40.8106286,1.32409493 C41.0852583,1.35295967 41.2844901,1.59899047 41.2556253,1.87362011 L40.8913595,5.33937823 C40.8624947,5.61400787 40.6164639,5.81323969 40.3418343,5.78437495 L40.2212862,5.77170483 C39.9466565,5.74284009 39.7474247,5.49680929 39.7762895,5.22217965 L40.1405553,1.75642153 C40.1694201,1.48179189 40.4154509,1.28256008 40.6900805,1.31142482 Z M33.8594447,1.75642153 L34.2237105,5.22217965 C34.2525753,5.49680929 34.0533435,5.74284009 33.7787138,5.77170483 L33.6581657,5.78437495 C33.3835361,5.81323969 33.1375053,5.61400787 33.1086405,5.33937823 L32.7443747,1.87362011 C32.7155099,1.59899047 32.9147417,1.35295967 33.1893714,1.32409493 L33.3099195,1.31142482 C33.5845491,1.28256008 33.8305799,1.48179189 33.8594447,1.75642153 Z M38.8172277,1.16721088 L38.9382737,1.17355463 C39.2140376,1.1880068 39.4258726,1.42327344 39.4114205,1.69903737 L39.2290376,5.17911 C39.2145854,5.45487393 38.9793188,5.66670896 38.7035548,5.65225679 L38.5825088,5.64591303 C38.3067449,5.63146086 38.0949099,5.39619422 38.109362,5.12043029 L38.2917449,1.64035767 C38.3061971,1.36459373 38.5414637,1.1527587 38.8172277,1.16721088 Z M35.1827723,1.16721088 C35.4585363,1.1527587 35.6938029,1.36459373 35.7082551,1.64035767 L35.890638,5.12043029 C35.9050901,5.39619422 35.6932551,5.63146086 35.4174912,5.64591303 L35.2964452,5.65225679 C35.0206812,5.66670896 34.7854146,5.45487393 34.7709624,5.17911 L34.5885795,1.69903737 C34.5741274,1.42327344 34.7859624,1.1880068 35.0617263,1.17355463 L35.1827723,1.16721088 Z M37.0606061,1.12121212 C37.3367484,1.12121212 37.5606061,1.34506975 37.5606061,1.62121212 L37.5606061,5.10606061 C37.5606061,5.38220298 37.3367484,5.60606061 37.0606061,5.60606061 L36.9393939,5.60606061 C36.6632516,5.60606061 36.4393939,5.38220298 36.4393939,5.10606061 L36.4393939,1.62121212 C36.4393939,1.34506975 36.6632516,1.12121212 36.9393939,1.12121212 L37.0606061,1.12121212 Z" id="形状结合" fill="#006EC2"></path>
                    <path d="M37,60.2962963 C37.3784173,60.2962963 37.6851852,60.6030642 37.6851852,60.9814815 C37.6851852,61.3598988 37.3784173,61.6666667 37,61.6666667 C36.6215827,61.6666667 36.3148148,61.3598988 36.3148148,60.9814815 C36.3148148,60.6030642 36.6215827,60.2962963 37,60.2962963 Z M43.8687022,59.9869933 C43.9666438,60.3525164 43.7497262,60.7282288 43.3842031,60.8261704 C43.01868,60.924112 42.6429677,60.7071944 42.5450261,60.3416713 C42.4470845,59.9761482 42.6640021,59.6004359 43.0295252,59.5024942 C43.3950482,59.4045526 43.7707606,59.6214703 43.8687022,59.9869933 Z M30.9704748,59.5024942 C31.3359979,59.6004359 31.5529155,59.9761482 31.4549739,60.3416713 C31.3570323,60.7071944 30.98132,60.924112 30.6157969,60.8261704 C30.2502738,60.7282288 30.0333562,60.3525164 30.1312978,59.9869933 C30.2292394,59.6214703 30.6049518,59.4045526 30.9704748,59.5024942 Z M49.5841285,57.4259796 C49.7733372,57.7536986 49.6610524,58.1727513 49.3333333,58.36196 C49.0056143,58.5511686 48.5865616,58.4388838 48.397353,58.1111648 C48.2081443,57.7834458 48.3204291,57.3643931 48.6481481,57.1751844 C48.9758672,56.9859757 49.3949199,57.0982606 49.5841285,57.4259796 Z M25.3518519,57.1751844 C25.6795709,57.3643931 25.7918557,57.7834458 25.602647,58.1111648 C25.4134384,58.4388838 24.9943857,58.5511686 24.6666667,58.36196 C24.3389476,58.1727513 24.2266628,57.7536986 24.4158715,57.4259796 C24.6050801,57.0982606 25.0241328,56.9859757 25.3518519,57.1751844 Z M54.4419673,53.4729691 C54.7095487,53.7405505 54.7095487,54.1743858 54.4419673,54.4419673 C54.1743858,54.7095487 53.7405505,54.7095487 53.4729691,54.4419673 C53.2053876,54.1743858 53.2053876,53.7405505 53.4729691,53.4729691 C53.7405505,53.2053876 54.1743858,53.2053876 54.4419673,53.4729691 Z M20.5270309,53.4729691 C20.7946124,53.7405505 20.7946124,54.1743858 20.5270309,54.4419673 C20.2594495,54.7095487 19.8256142,54.7095487 19.5580327,54.4419673 C19.2904513,54.1743858 19.2904513,53.7405505 19.5580327,53.4729691 C19.8256142,53.2053876 20.2594495,53.2053876 20.5270309,53.4729691 Z M58.1111648,48.397353 C58.4388838,48.5865616 58.5511686,49.0056143 58.36196,49.3333333 C58.1727513,49.6610524 57.7536986,49.7733372 57.4259796,49.5841285 C57.0982606,49.3949199 56.9859757,48.9758672 57.1751844,48.6481481 C57.3643931,48.3204291 57.7834458,48.2081443 58.1111648,48.397353 Z M16.8248156,48.6481481 C17.0140243,48.9758672 16.9017394,49.3949199 16.5740204,49.5841285 C16.2463014,49.7733372 15.8272487,49.6610524 15.63804,49.3333333 C15.4488314,49.0056143 15.5611162,48.5865616 15.8888352,48.397353 C16.2165542,48.2081443 16.6356069,48.3204291 16.8248156,48.6481481 Z M60.3416713,42.5450261 C60.7071944,42.6429677 60.924112,43.01868 60.8261704,43.3842031 C60.7282288,43.7497262 60.3525164,43.9666438 59.9869933,43.8687022 C59.6214703,43.7707606 59.4045526,43.3950482 59.5024942,43.0295252 C59.6004359,42.6640021 59.9761482,42.4470845 60.3416713,42.5450261 Z M14.4975058,43.0295252 C14.5954474,43.3950482 14.3785297,43.7707606 14.0130067,43.8687022 C13.6474836,43.9666438 13.2717712,43.7497262 13.1738296,43.3842031 C13.075888,43.01868 13.2928056,42.6429677 13.6583287,42.5450261 C14.0238518,42.4470845 14.3995641,42.6640021 14.4975058,43.0295252 Z M60.9814815,36.3148148 C61.3598988,36.3148148 61.6666667,36.6215827 61.6666667,37 C61.6666667,37.3784173 61.3598988,37.6851852 60.9814815,37.6851852 C60.6030642,37.6851852 60.2962963,37.3784173 60.2962963,37 C60.2962963,36.6215827 60.6030642,36.3148148 60.9814815,36.3148148 Z M13.0185185,36.3148148 C13.3969358,36.3148148 13.7037037,36.6215827 13.7037037,37 C13.7037037,37.3784173 13.3969358,37.6851852 13.0185185,37.6851852 C12.6401012,37.6851852 12.3333333,37.3784173 12.3333333,37 C12.3333333,36.6215827 12.6401012,36.3148148 13.0185185,36.3148148 Z M60.8261704,30.6157969 C60.924112,30.98132 60.7071944,31.3570323 60.3416713,31.4549739 C59.9761482,31.5529155 59.6004359,31.3359979 59.5024942,30.9704748 C59.4045526,30.6049518 59.6214703,30.2292394 59.9869933,30.1312978 C60.3525164,30.0333562 60.7282288,30.2502738 60.8261704,30.6157969 Z M14.0130067,30.1312978 C14.3785297,30.2292394 14.5954474,30.6049518 14.4975058,30.9704748 C14.3995641,31.3359979 14.0238518,31.5529155 13.6583287,31.4549739 C13.2928056,31.3570323 13.075888,30.98132 13.1738296,30.6157969 C13.2717712,30.2502738 13.6474836,30.0333562 14.0130067,30.1312978 Z M58.36196,24.6666667 C58.5511686,24.9943857 58.4388838,25.4134384 58.1111648,25.602647 C57.7834458,25.7918557 57.3643931,25.6795709 57.1751844,25.3518519 C56.9859757,25.0241328 57.0982606,24.6050801 57.4259796,24.4158715 C57.7536986,24.2266628 58.1727513,24.3389476 58.36196,24.6666667 Z M16.5740204,24.4158715 C16.9017394,24.6050801 17.0140243,25.0241328 16.8248156,25.3518519 C16.6356069,25.6795709 16.2165542,25.7918557 15.8888352,25.602647 C15.5611162,25.4134384 15.4488314,24.9943857 15.63804,24.6666667 C15.8272487,24.3389476 16.2463014,24.2266628 16.5740204,24.4158715 Z M54.4419673,19.5580327 C54.7095487,19.8256142 54.7095487,20.2594495 54.4419673,20.5270309 C54.1743858,20.7946124 53.7405505,20.7946124 53.4729691,20.5270309 C53.2053876,20.2594495 53.2053876,19.8256142 53.4729691,19.5580327 C53.7405505,19.2904513 54.1743858,19.2904513 54.4419673,19.5580327 Z M20.5270309,19.5580327 C20.7946124,19.8256142 20.7946124,20.2594495 20.5270309,20.5270309 C20.2594495,20.7946124 19.8256142,20.7946124 19.5580327,20.5270309 C19.2904513,20.2594495 19.2904513,19.8256142 19.5580327,19.5580327 C19.8256142,19.2904513 20.2594495,19.2904513 20.5270309,19.5580327 Z M49.3333333,15.63804 C49.6610524,15.8272487 49.7733372,16.2463014 49.5841285,16.5740204 C49.3949199,16.9017394 48.9758672,17.0140243 48.6481481,16.8248156 C48.3204291,16.6356069 48.2081443,16.2165542 48.397353,15.8888352 C48.5865616,15.5611162 49.0056143,15.4488314 49.3333333,15.63804 Z M25.602647,15.8888352 C25.7918557,16.2165542 25.6795709,16.6356069 25.3518519,16.8248156 C25.0241328,17.0140243 24.6050801,16.9017394 24.4158715,16.5740204 C24.2266628,16.2463014 24.3389476,15.8272487 24.6666667,15.63804 C24.9943857,15.4488314 25.4134384,15.5611162 25.602647,15.8888352 Z M43.3842031,13.1738296 C43.7497262,13.2717712 43.9666438,13.6474836 43.8687022,14.0130067 C43.7707606,14.3785297 43.3950482,14.5954474 43.0295252,14.4975058 C42.6640021,14.3995641 42.4470845,14.0238518 42.5450261,13.6583287 C42.6429677,13.2928056 43.01868,13.075888 43.3842031,13.1738296 Z M31.4549739,13.6583287 C31.5529155,14.0238518 31.3359979,14.3995641 30.9704748,14.4975058 C30.6049518,14.5954474 30.2292394,14.3785297 30.1312978,14.0130067 C30.0333562,13.6474836 30.2502738,13.2717712 30.6157969,13.1738296 C30.98132,13.075888 31.3570323,13.2928056 31.4549739,13.6583287 Z M37,12.3333333 C37.3784173,12.3333333 37.6851852,12.6401012 37.6851852,13.0185185 C37.6851852,13.3969358 37.3784173,13.7037037 37,13.7037037 C36.6215827,13.7037037 36.3148148,13.3969358 36.3148148,13.0185185 C36.3148148,12.6401012 36.6215827,12.3333333 37,12.3333333 Z" id="形状结合" fill="#00F7F7" opacity="0.300000012"></path>
                </g>
            </g>
        </g>
    </g>
</svg>